<?xml version="1.0" encoding="UTF-8" standalone="no"?>
<!-- Created with Inkscape (http://www.inkscape.org/) -->

<svg
   width="8.5in"
   height="11in"
   viewBox="0 0 816 1056"
   version="1.1"
   id="svg5"
   inkscape:version="1.1.1 (3bf5ae0d25, 2021-09-20)"
   sodipodi:docname="clock_face.svg"
   xmlns:inkscape="http://www.inkscape.org/namespaces/inkscape"
   xmlns:sodipodi="http://sodipodi.sourceforge.net/DTD/sodipodi-0.dtd"
   xmlns:xlink="http://www.w3.org/1999/xlink"
   xmlns="http://www.w3.org/2000/svg"
   xmlns:svg="http://www.w3.org/2000/svg">
  <sodipodi:namedview
     id="namedview7"
     pagecolor="#ffffff"
     bordercolor="#666666"
     borderopacity="1.0"
     inkscape:pageshadow="2"
     inkscape:pageopacity="0.0"
     inkscape:pagecheckerboard="0"
     inkscape:document-units="in"
     showgrid="false"
     inkscape:snap-global="false"
     inkscape:zoom="1.4142136"
     inkscape:cx="357.44247"
     inkscape:cy="470.57955"
     inkscape:window-width="2560"
     inkscape:window-height="1377"
     inkscape:window-x="6392"
     inkscape:window-y="-8"
     inkscape:window-maximized="1"
     inkscape:current-layer="layer23" />
  <defs
     id="defs2" />
  <g
     inkscape:label="Outer Circle"
     inkscape:groupmode="layer"
     id="layer1"
     style="display:inline" />
  <g
     inkscape:label="Inner Circle"
     inkscape:groupmode="layer"
     id="g134071"
     style="display:inline" />
  <g
     inkscape:groupmode="layer"
     id="layer4"
     inkscape:label="Clock Face"
     style="display:inline" />
  <g
     inkscape:groupmode="layer"
     id="layer9"
     inkscape:label="Text">
    <g
       inkscape:groupmode="layer"
       id="layer10"
       inkscape:label="Home" />
    <g
       inkscape:groupmode="layer"
       id="layer12"
       inkscape:label="Lost" />
    <g
       inkscape:groupmode="layer"
       id="layer13"
       inkscape:label="Away" />
    <g
       inkscape:groupmode="layer"
       id="layer14"
       inkscape:label="Vacation" />
    <g
       inkscape:groupmode="layer"
       id="layer15"
       inkscape:label="Friends" />
    <g
       inkscape:groupmode="layer"
       id="layer16"
       inkscape:label="Parents" />
    <g
       inkscape:groupmode="layer"
       id="layer17"
       inkscape:label="Lesson" />
    <g
       inkscape:groupmode="layer"
       id="layer18"
       inkscape:label="Work" />
    <g
       inkscape:groupmode="layer"
       id="layer19"
       inkscape:label="Doctor" />
    <g
       inkscape:groupmode="layer"
       id="layer20"
       inkscape:label="Traveling" />
    <g
       inkscape:groupmode="layer"
       id="layer21"
       inkscape:label="Event" />
    <g
       inkscape:groupmode="layer"
       id="layer22"
       inkscape:label="School" />
    <g
       inkscape:groupmode="layer"
       id="layer23"
       inkscape:label="Church">
      <g
         id="g353515"
         transform="matrix(0.9818182,0,0,0.9818182,7.4181744,9.5999904)">
        <circle
           style="display:inline;fill:none;fill-rule:evenodd;stroke:#000000;stroke-width:4.68639;stroke-miterlimit:4;stroke-dasharray:none;stroke-opacity:1"
           id="path353"
           cx="408"
           cy="528"
           r="393.6568" />
        <circle
           style="display:inline;fill:none;fill-rule:evenodd;stroke:#000000;stroke-width:3.24923;stroke-miterlimit:4;stroke-dasharray:none;stroke-opacity:1"
           id="circle134069"
           cx="410"
           cy="528"
           r="272.93539" />
        <g
           transform="matrix(0.03815897,0,0,-0.0376814,1.1059293,924.39149)"
           fill="#000000"
           stroke="none"
           id="g3218"
           style="display:inline">
          <path
             d="m 11485,20833 c -152,-20 -341,-75 -584,-168 -93,-36 -193,-70 -223,-76 -88,-19 -168,-66 -373,-219 -164,-123 -313,-257 -429,-385 -50,-55 -125,-138 -166,-183 l -75,-82 -105,86 c -386,318 -734,504 -995,533 -90,10 -671,7 -795,-4 -522,-47 -823,-151 -1185,-410 -236,-169 -461,-412 -684,-740 -217,-320 -313,-525 -332,-710 -11,-108 -33,-201 -65,-273 -27,-60 -57,-77 -119,-67 -310,50 -422,60 -660,59 -218,0 -341,-19 -530,-82 -202,-66 -585,-276 -819,-450 -118,-88 -269,-236 -348,-342 -30,-41 -106,-156 -168,-255 -62,-99 -155,-245 -208,-325 -109,-166 -136,-221 -186,-379 -75,-237 -124,-549 -133,-846 -8,-253 2,-322 83,-566 35,-107 64,-203 64,-211 0,-12 -16,-20 -57,-28 -240,-48 -244,-50 -322,-105 -25,-18 -111,-68 -191,-110 -252,-135 -351,-207 -544,-395 -291,-283 -556,-680 -587,-880 -6,-41 -40,-178 -75,-305 -35,-126 -69,-268 -76,-315 -20,-144 -13,-641 13,-880 22,-211 92,-424 220,-670 145,-278 283,-452 464,-582 61,-44 109,-85 107,-91 -13,-46 -203,-316 -441,-626 -125,-163 -227,-395 -300,-689 -58,-228 -81,-416 -82,-647 0,-214 26,-327 138,-604 30,-75 81,-212 113,-306 95,-280 132,-349 329,-610 110,-146 244,-271 481,-447 238,-177 383,-250 629,-317 263,-73 265,-80 136,-496 -88,-289 -114,-495 -81,-667 26,-137 150,-471 210,-567 13,-20 45,-91 71,-156 103,-263 305,-539 608,-832 399,-385 711,-540 1237,-612 215,-29 314,-35 805,-46 137,-3 251,-8 253,-10 10,-10 33,-129 47,-245 27,-216 63,-306 212,-535 139,-212 291,-401 483,-599 148,-153 244,-230 312,-250 29,-9 96,-43 148,-76 52,-34 128,-77 167,-96 169,-80 566,-195 898,-258 168,-32 184,-34 345,-42 305,-15 587,56 945,235 231,116 438,239 512,303 30,27 58,48 62,48 17,0 89,-59 127,-106 23,-27 69,-88 102,-135 88,-124 186,-207 402,-339 74,-45 176,-110 225,-145 112,-78 202,-123 336,-170 219,-77 466,-122 714,-132 279,-10 710,30 925,88 90,24 515,235 639,317 119,78 238,180 366,313 171,177 252,293 399,571 71,133 133,249 139,256 17,21 55,13 160,-32 56,-25 183,-69 282,-100 99,-30 206,-64 238,-75 173,-60 709,-23 1060,73 222,61 462,165 664,287 316,191 651,523 850,844 238,383 323,678 348,1205 3,69 8,161 11,206 l 6,81 201,37 c 256,48 408,85 574,141 270,92 455,183 560,278 35,31 70,57 78,57 18,0 107,71 205,164 42,39 96,87 120,107 57,45 142,187 256,426 47,98 126,261 176,362 92,187 118,257 118,322 0,23 11,52 31,83 30,44 32,56 40,169 4,67 4,255 -1,417 -19,584 -23,603 -215,1076 -58,142 -105,261 -105,265 0,4 39,44 87,90 407,390 516,514 723,824 51,77 121,174 155,216 83,102 242,341 273,409 44,100 52,179 48,480 -3,219 -8,301 -25,405 -64,389 -171,666 -449,1160 -105,187 -371,536 -434,569 -20,10 -74,52 -120,93 -147,130 -226,191 -258,198 -17,4 -34,13 -37,20 -9,24 26,125 112,320 117,269 167,431 204,666 39,245 49,379 47,659 l -1,235 -37,105 c -43,125 -126,307 -292,640 -209,417 -253,480 -540,765 -228,227 -294,282 -371,310 -27,10 -144,59 -260,110 -324,142 -422,170 -635,181 -74,4 -136,7 -137,8 -7,5 -87,442 -108,587 -43,293 -81,436 -176,661 -27,65 -54,139 -59,165 -20,89 -130,254 -325,488 -156,188 -244,274 -436,427 -202,161 -240,184 -319,194 -66,8 -83,16 -135,63 -71,64 -294,168 -545,253 -145,49 -242,73 -353,88 -266,37 -862,-66 -1111,-192 -32,-16 -86,-49 -119,-74 -34,-24 -64,-41 -68,-36 -4,4 -19,54 -34,112 -59,234 -217,487 -465,744 -129,134 -224,208 -402,314 -76,45 -204,125 -285,179 -295,194 -380,222 -773,252 -116,9 -470,12 -525,4 z m 475,-88 c 111,-14 241,-34 289,-44 203,-45 464,-162 596,-266 68,-53 180,-114 238,-129 46,-11 161,-86 236,-154 157,-141 363,-425 476,-657 44,-88 94,-221 158,-415 102,-310 139,-395 195,-452 30,-32 62,-49 62,-34 0,22 -52,163 -92,248 -56,122 -65,162 -44,198 41,69 42,71 17,89 l -23,18 30,24 c 81,69 389,204 511,224 212,35 714,53 796,28 22,-7 79,-21 126,-33 175,-41 372,-130 547,-248 94,-63 174,-102 210,-102 35,0 120,-49 207,-119 50,-40 107,-82 128,-93 55,-28 274,-244 374,-368 170,-212 324,-464 336,-551 3,-24 20,-63 42,-95 45,-66 60,-112 90,-289 53,-317 70,-624 45,-850 -10,-94 -95,-622 -105,-656 -6,-18 -19,-206 -18,-264 0,-22 3,-96 6,-165 3,-69 6,-233 7,-365 6,-566 51,-759 283,-1191 l 54,-102 -152,-152 c -141,-141 -154,-152 -172,-139 -45,32 -271,243 -311,289 -98,114 -189,263 -311,506 -180,362 -256,564 -305,819 -31,155 -58,362 -67,505 -5,80 -13,177 -18,215 -5,39 -12,138 -15,220 -12,280 -39,489 -91,713 -35,154 -35,230 -1,275 42,55 53,130 33,223 -54,248 -279,507 -500,576 -59,19 -96,23 -207,23 -74,0 -174,-4 -222,-9 l -86,-9 -90,-98 c -113,-123 -139,-166 -174,-298 -45,-164 -89,-251 -129,-251 -26,0 -144,157 -265,352 -134,217 -174,288 -289,518 -93,187 -133,256 -141,247 -14,-14 113,-341 207,-533 117,-240 294,-470 600,-777 l 187,-188 -53,-127 c -71,-169 -98,-253 -87,-264 12,-12 26,11 110,178 68,137 94,175 106,156 13,-22 -65,-251 -107,-313 -44,-64 -67,-74 -180,-74 -88,1 -115,5 -197,34 -308,105 -697,394 -1068,791 -221,237 -305,355 -500,705 -109,194 -258,426 -387,600 -174,235 -263,382 -292,479 -74,249 -303,437 -563,461 -83,8 -115,21 -136,53 l -17,25 -13,-39 c -18,-54 -58,-84 -211,-159 -199,-98 -284,-186 -328,-339 -25,-87 -18,-223 17,-298 69,-150 240,-238 438,-224 110,7 174,29 219,76 46,47 75,62 105,54 32,-8 46,18 50,94 9,143 -32,273 -105,336 -104,88 -280,75 -386,-31 -46,-46 -70,-93 -84,-167 -10,-54 -9,-68 13,-179 15,-81 5,-88 -69,-51 -71,36 -97,73 -112,160 -16,90 2,220 41,297 29,58 97,129 118,122 11,-3 34,8 61,31 119,100 372,168 496,135 91,-25 305,-194 371,-294 25,-37 27,-47 25,-136 -2,-124 -18,-223 -48,-288 -44,-96 -164,-203 -230,-203 -35,0 -87,-32 -163,-101 l -53,-48 -98,6 c -109,7 -171,-1 -171,-21 0,-8 11,-33 24,-57 14,-24 34,-87 44,-139 22,-107 28,-103 35,21 8,144 44,184 103,113 l 32,-38 33,37 c 18,20 38,37 45,37 6,0 24,-18 38,-41 15,-22 30,-39 32,-36 3,3 7,22 10,43 8,74 11,79 56,91 24,6 50,14 59,18 49,19 68,-87 24,-130 -13,-14 -33,-25 -43,-25 -30,0 -49,-30 -61,-94 -11,-62 -22,-80 -54,-97 -18,-10 -19,-8 -12,60 4,43 3,71 -2,71 -22,0 -45,-42 -53,-98 -9,-64 -20,-91 -45,-112 -28,-23 -37,1 -28,71 10,70 4,110 -15,117 -17,5 -31,-38 -38,-121 -13,-146 -84,-223 -84,-91 0,19 -3,34 -8,34 -4,0 -19,-24 -33,-52 -30,-64 -74,-91 -181,-115 -60,-13 -170,-16 -608,-20 l -535,-5 -325,160 c -472,231 -608,308 -1025,584 -250,165 -405,254 -720,413 -224,113 -326,153 -405,160 -99,7 -276,-41 -387,-106 -74,-44 -208,-178 -252,-252 -93,-158 -137,-392 -94,-499 9,-24 63,-115 118,-203 56,-88 114,-181 129,-207 l 27,-47 -23,-5 c -237,-49 -620,-39 -996,25 -216,36 -696,153 -884,215 l -78,26 v 40 c 0,81 42,286 86,417 47,143 159,381 244,521 28,47 89,135 135,195 46,61 95,136 110,168 32,67 98,130 277,268 278,212 516,354 714,422 286,100 548,133 1264,162 l 145,6 215,-94 c 280,-123 356,-161 481,-245 128,-86 270,-206 549,-461 477,-437 580,-526 626,-546 33,-13 47,-23 270,-173 130,-87 265,-162 291,-162 9,0 24,-6 32,-13 35,-30 322,-157 406,-181 104,-29 213,-48 228,-39 5,3 -68,37 -164,74 -426,167 -833,411 -1211,728 -126,106 -530,491 -526,502 2,4 60,79 129,166 272,340 478,495 886,666 353,149 716,242 954,246 36,1 157,-10 269,-24 z m -45,-1616 c 50,-14 100,-64 116,-117 14,-49 1,-127 -31,-180 -34,-55 -80,-37 -80,30 0,52 -24,106 -53,119 -50,23 -161,-31 -155,-75 3,-22 11,-23 83,-15 38,5 46,-23 13,-45 -52,-34 -146,-27 -182,13 -39,43 -13,144 54,211 66,66 141,85 235,59 z m -3805,-81 c 99,-31 150,-60 207,-120 143,-151 175,-385 77,-555 -37,-64 -53,-59 -158,55 -237,255 -326,323 -424,324 -67,0 -114,-22 -176,-85 -136,-136 -151,-247 -52,-401 52,-81 78,-135 70,-148 -9,-14 -101,-3 -154,18 -52,21 -124,101 -145,162 -53,154 -5,363 118,513 99,121 285,242 398,259 71,11 159,2 239,-22 z m 4525,-232 c 105,-109 270,-352 445,-656 265,-460 536,-825 835,-1125 148,-149 268,-252 370,-318 199,-128 544,-267 784,-316 103,-22 279,-25 356,-7 184,43 437,225 583,418 85,113 134,161 158,156 56,-10 112,-322 139,-763 8,-131 34,-480 40,-525 2,-19 7,-66 10,-105 4,-38 13,-113 22,-165 8,-52 16,-136 18,-186 3,-80 9,-105 48,-205 268,-675 430,-962 692,-1223 255,-252 478,-349 773,-333 138,8 220,26 441,101 90,31 168,56 172,56 30,0 -119,-478 -236,-760 -157,-378 -369,-956 -392,-1065 -14,-68 -15,-125 -10,-395 4,-173 9,-328 11,-345 2,-16 7,-118 11,-225 4,-107 10,-250 14,-316 7,-121 7,-122 38,-148 21,-18 44,-57 69,-117 46,-112 114,-210 214,-310 185,-185 436,-330 635,-366 194,-36 185,-33 185,-55 0,-11 -16,-42 -35,-68 -58,-79 -291,-297 -460,-430 -209,-164 -337,-275 -509,-435 -295,-275 -459,-464 -560,-646 -38,-68 -110,-191 -159,-274 -108,-179 -170,-301 -191,-374 -16,-54 -23,-114 -52,-456 -9,-104 -22,-212 -29,-239 -16,-62 -12,-75 50,-166 29,-42 68,-108 89,-146 76,-146 336,-454 382,-454 42,0 184,-120 184,-156 0,-7 -25,-14 -67,-18 -94,-9 -144,-19 -423,-86 -308,-74 -455,-103 -700,-141 -107,-17 -228,-37 -269,-45 -240,-49 -485,-168 -826,-402 -326,-222 -582,-478 -726,-724 -54,-92 -142,-296 -159,-367 -32,-136 46,-474 171,-743 32,-69 59,-131 59,-137 0,-18 -85,-17 -215,5 -243,39 -678,156 -824,220 -31,14 -76,38 -101,53 -126,79 -307,96 -1035,96 -325,0 -485,-4 -545,-13 -211,-32 -586,-200 -769,-344 -89,-70 -165,-169 -226,-293 -128,-260 -246,-661 -217,-738 6,-17 9,-33 7,-36 -9,-9 -69,26 -116,67 -40,36 -57,64 -90,149 -5,14 -22,26 -48,33 -78,21 -222,145 -624,537 -320,312 -471,451 -549,504 -31,22 -59,39 -62,39 -20,0 -109,67 -121,91 -11,21 -25,30 -53,34 -122,19 -179,32 -382,90 -361,102 -440,115 -735,122 -345,8 -443,-16 -611,-151 -162,-130 -307,-310 -405,-500 -34,-67 -73,-136 -86,-154 l -25,-33 -24,22 c -67,63 -205,418 -329,844 -164,566 -305,872 -545,1190 -88,116 -180,263 -180,287 0,11 -5,28 -11,40 -9,16 -17,19 -41,14 -45,-9 -90,16 -149,83 -56,64 -159,154 -240,209 -78,52 -248,138 -354,177 -426,158 -690,117 -1131,-177 -74,-49 -138,-87 -144,-83 -6,4 -10,55 -10,123 0,111 41,440 85,682 22,123 52,342 60,440 4,47 9,93 11,103 12,67 25,464 20,625 -17,500 -61,694 -250,1085 -119,246 -237,437 -311,506 -82,76 -234,135 -445,173 -101,19 -160,22 -500,24 -212,2 -400,6 -417,9 -37,7 -57,35 -47,67 11,37 155,177 329,323 303,253 489,432 617,593 77,97 313,454 367,552 94,175 231,543 265,710 27,136 39,292 40,525 2,486 -30,624 -188,821 -148,185 -348,326 -564,398 -151,51 -222,85 -222,107 0,40 212,180 468,308 143,72 184,90 397,176 151,61 259,111 296,136 14,10 48,23 75,30 69,17 127,48 268,143 158,106 243,174 391,311 66,61 143,130 172,153 30,25 116,128 208,250 123,164 169,234 221,337 75,151 144,354 173,510 49,264 27,418 -85,604 -47,76 -200,293 -274,386 -22,28 -40,56 -40,62 0,20 52,41 132,55 82,14 651,18 828,6 438,-31 536,-31 713,3 28,5 86,9 129,9 76,0 81,-2 108,-30 15,-16 33,-30 38,-30 6,0 29,16 53,36 55,46 128,82 259,129 58,20 153,59 211,86 59,27 137,56 174,64 78,16 135,44 270,133 223,148 460,362 550,498 81,122 136,260 160,406 22,127 13,378 -19,557 -14,80 -24,147 -22,149 2,2 33,-4 68,-13 138,-37 466,-219 903,-501 225,-146 233,-150 435,-239 181,-80 271,-115 299,-115 9,0 38,-18 64,-39 26,-22 60,-42 75,-45 83,-18 210,-26 502,-32 755,-15 1025,50 1301,313 178,170 326,459 349,680 6,52 13,99 16,104 11,19 39,7 79,-35 z m -941,-82 c 19,-18 19,-20 6,-45 -18,-33 -70,-18 -70,21 0,19 19,40 36,40 7,0 20,-7 28,-16 z m -3790,-65 c 78,-52 141,-166 134,-245 -5,-59 -29,-56 -118,16 -78,62 -97,72 -85,43 4,-10 10,-39 12,-65 5,-39 2,-49 -12,-54 -22,-9 -42,12 -64,71 -10,27 -24,51 -29,53 -33,11 -26,-136 10,-200 34,-61 50,-67 98,-41 22,12 40,18 40,14 0,-11 -82,-87 -108,-100 -12,-7 -31,-9 -42,-6 -19,6 -23,15 -35,72 -3,17 -23,51 -44,75 -71,81 -85,130 -55,194 37,78 175,204 223,204 15,0 49,-14 75,-31 z m 229,-335 c 73,-37 158,-144 114,-144 -42,0 -157,105 -157,143 0,21 3,21 43,1 z m 344,-181 c -8,-200 -16,-281 -29,-289 -24,-15 -128,176 -128,237 0,27 4,39 14,39 18,0 43,-36 86,-127 18,-40 35,-71 36,-70 2,2 -4,41 -12,87 -10,56 -13,110 -9,159 6,71 26,141 41,141 4,0 4,-80 1,-177 z m -343,22 c 59,-58 70,-85 36,-85 -61,0 -149,92 -125,130 12,20 34,9 89,-45 z m -3189,-75 c 39,-6 124,-14 190,-19 189,-14 587,-101 677,-147 34,-17 81,-31 238,-68 432,-103 637,-127 1040,-125 261,2 369,9 542,39 223,38 358,93 384,156 13,32 13,39 -12,100 -14,36 -24,68 -21,71 9,9 45,-16 66,-46 67,-94 236,-459 227,-489 -9,-28 -124,-135 -211,-197 -369,-263 -917,-487 -1319,-540 -97,-12 -139,-13 -225,-4 -145,15 -397,6 -501,-19 -18,-4 -68,-5 -110,-1 -191,18 -567,36 -875,44 -126,3 -293,7 -370,10 -339,13 -492,-22 -530,-121 -10,-26 -48,-81 -84,-123 -183,-208 -221,-292 -222,-492 l -1,-114 47,-104 c 26,-58 60,-124 76,-147 36,-53 141,-124 347,-234 83,-45 152,-84 152,-86 0,-2 -48,-36 -107,-75 -341,-225 -1287,-593 -1605,-625 -164,-16 -211,31 -287,286 -46,153 -62,298 -62,552 1,119 3,241 7,270 16,144 36,252 63,341 17,54 35,132 40,175 15,117 30,146 191,358 41,54 109,152 150,218 184,292 429,568 627,706 301,211 696,407 883,440 172,30 424,34 595,10 z m 2979,-66 c 9,-20 14,-44 11,-55 -9,-26 -59,-54 -143,-79 -82,-25 -145,-23 -187,4 -26,17 -85,100 -85,119 0,6 17,6 43,2 64,-12 137,-8 187,11 67,25 134,42 146,37 6,-2 18,-20 28,-39 z m 350,-45 c 72,-80 133,-249 107,-298 -30,-54 -80,-4 -158,158 -48,100 -63,162 -44,185 18,22 47,8 95,-45 z m 7521,-99 c 92,-14 159,-46 221,-106 123,-120 238,-351 227,-454 -15,-135 -196,-331 -387,-421 -77,-36 -96,-33 -96,14 0,45 26,242 46,347 9,47 17,121 18,165 1,72 -2,85 -30,135 -58,103 -142,146 -269,138 -87,-6 -144,-33 -206,-99 -92,-97 -86,-165 24,-276 46,-47 58,-66 50,-74 -35,-35 -141,58 -198,174 -47,97 -59,161 -40,225 36,122 133,201 278,227 88,16 267,18 362,5 z m -140,-300 c 54,-26 75,-58 82,-124 11,-107 -41,-240 -81,-207 -16,13 -22,39 -31,127 -2,28 -9,63 -14,77 -22,57 -98,74 -159,37 -27,-16 -33,-26 -30,-48 3,-28 16,-32 68,-18 38,10 56,-7 44,-41 -26,-76 -199,0 -196,87 3,108 188,173 317,110 z m -392,-379 82,-103 97,6 c 104,7 132,1 143,-34 8,-26 20,-18 45,28 21,40 23,35 20,-48 -2,-68 -18,-118 -42,-131 -88,-47 -468,139 -573,281 -30,41 -32,78 -8,179 l 17,74 69,-74 c 37,-41 105,-121 150,-178 z m 193,-356 c 19,-50 -146,-375 -191,-375 -38,0 -15,102 51,230 67,131 123,189 140,145 z m 411,-59 c 3,-3 -2,-16 -13,-27 -22,-25 -296,-221 -301,-215 -2,2 10,39 26,82 36,99 44,131 31,139 -11,7 -60,-68 -109,-167 -19,-37 -52,-87 -74,-110 -38,-40 -41,-41 -45,-21 -4,24 56,150 113,239 43,67 75,88 145,94 60,5 217,-4 227,-14 z m -11171,-39 c 128,-65 306,-327 290,-426 -14,-87 -88,-83 -311,17 -117,52 -181,66 -263,59 -172,-17 -286,-143 -286,-317 0,-51 6,-76 26,-115 53,-100 172,-184 242,-171 67,13 145,131 168,253 18,102 -20,148 -123,148 -77,0 -107,-23 -134,-99 -18,-51 -18,-59 -5,-83 9,-16 42,-40 84,-61 62,-30 67,-35 53,-49 -8,-8 -35,-17 -58,-20 -63,-6 -127,36 -163,108 -32,66 -33,92 -1,155 65,131 173,196 272,164 126,-42 181,-141 174,-312 -1,-16 -15,-44 -34,-65 -41,-47 -50,-69 -37,-94 15,-28 34,-24 68,15 53,61 82,184 70,296 -3,21 1,25 22,22 52,-5 113,-46 137,-91 53,-100 20,-207 -95,-309 -39,-34 -72,-72 -74,-84 -3,-20 -181,-187 -200,-188 -14,0 -326,204 -390,256 -207,169 -261,381 -153,594 41,80 145,231 198,288 106,112 188,144 357,139 100,-4 122,-7 166,-30 z m 12979,-243 c 19,-3 75,-2 124,4 163,20 310,-18 668,-173 292,-125 407,-201 619,-407 203,-197 351,-398 473,-638 183,-360 284,-597 328,-769 24,-95 27,-124 27,-286 1,-198 -4,-277 -33,-530 -25,-216 -57,-367 -115,-540 -84,-251 -191,-448 -355,-654 -91,-115 -191,-265 -308,-461 -175,-296 -423,-759 -423,-792 0,-8 -20,-87 -45,-174 -62,-218 -85,-344 -95,-519 -13,-240 -42,-282 -223,-319 -89,-19 -150,-20 -178,-5 -27,14 -76,125 -99,224 -44,185 -72,581 -74,1040 -1,275 0,280 90,508 52,132 108,293 182,527 16,52 46,121 65,153 96,158 274,672 292,844 9,80 48,161 120,248 91,110 125,203 125,343 0,244 -129,490 -343,651 -70,53 -171,99 -247,113 -149,28 -323,-43 -510,-207 -168,-148 -204,-151 -230,-16 -31,164 -35,1195 -5,1349 4,22 38,304 54,445 5,42 14,84 22,93 11,13 15,12 36,-15 15,-19 37,-33 58,-37 z M 5090,16308 c 24,-26 26,-46 4,-55 -23,-9 -58,30 -49,56 8,27 19,27 45,-1 z m 57,-185 c 102,-108 108,-124 21,-65 -89,61 -133,105 -125,126 11,28 27,18 104,-61 z m -653,-25 c 8,-13 6,-24 -11,-45 -27,-37 -87,-38 -116,-2 -19,23 -19,24 8,47 33,28 101,28 119,0 z m 732,-184 c 44,-40 44,-41 44,-110 -1,-142 -51,-406 -104,-548 -115,-304 -361,-608 -696,-858 -270,-202 -601,-407 -845,-523 -171,-82 -224,-99 -291,-92 -51,5 -56,4 -99,-32 -25,-21 -85,-60 -133,-87 -48,-26 -148,-86 -222,-133 -215,-134 -290,-176 -538,-297 -212,-103 -238,-118 -292,-173 -95,-98 -123,-193 -122,-426 0,-199 15,-323 48,-395 28,-62 173,-210 259,-266 76,-48 111,-54 340,-61 116,-3 218,-10 229,-15 23,-12 19,-36 -24,-147 -36,-92 -100,-194 -189,-301 -116,-138 -423,-455 -480,-493 -31,-21 -105,-87 -166,-146 -180,-175 -449,-391 -488,-391 -22,0 -151,115 -310,279 l -147,151 -69,143 c -174,357 -260,692 -278,1080 -6,134 -6,138 17,159 21,20 22,25 15,112 -11,136 -6,217 20,361 41,219 114,448 218,682 94,211 185,339 392,552 394,405 793,621 1310,711 66,11 179,37 250,56 217,59 953,308 1065,360 284,132 505,276 750,489 131,114 172,145 193,145 9,0 47,-29 84,-64 71,-66 118,-96 152,-96 44,0 31,25 -56,109 -101,96 -132,136 -116,152 14,14 62,-11 123,-61 76,-62 130,-80 130,-42 0,24 -31,63 -117,149 -40,40 -73,77 -73,83 0,20 23,9 72,-35 54,-48 121,-76 139,-58 17,17 -3,44 -85,112 -42,34 -76,64 -76,66 0,13 129,-66 166,-101 z m 13049,-1121 c 134,-33 281,-133 354,-242 157,-233 158,-602 2,-732 -90,-75 -215,-112 -381,-113 -135,-1 -166,10 -155,52 10,43 64,127 155,241 150,187 210,281 210,327 0,36 -78,142 -142,194 -171,138 -247,139 -388,3 -43,-40 -97,-84 -121,-96 -34,-18 -46,-31 -53,-59 -20,-79 15,-142 126,-230 149,-116 168,-137 168,-176 0,-40 -41,-108 -71,-117 -32,-10 -55,3 -113,66 -78,83 -137,169 -189,274 -52,103 -67,152 -67,215 0,43 3,48 83,125 155,152 320,271 397,286 42,8 104,2 185,-18 z m -59,-288 c 59,-34 142,-128 150,-169 8,-43 -15,-91 -73,-156 -92,-103 -137,-110 -266,-45 -80,42 -112,67 -133,107 -16,30 -19,118 -5,118 5,0 36,-33 68,-72 96,-118 146,-141 214,-95 90,60 88,194 -4,247 -38,22 -107,-3 -122,-44 -8,-24 -6,-31 14,-47 13,-10 38,-19 57,-19 35,0 46,-13 18,-24 -36,-14 -75,-5 -106,23 -28,25 -33,36 -33,74 0,54 25,94 76,120 41,21 86,16 145,-18 z m -447,-657 c -51,-97 -197,-267 -218,-254 -8,5 -7,15 3,34 27,53 200,239 224,242 1,0 -3,-10 -9,-22 z m 60,-124 c -36,-60 -125,-164 -140,-164 -17,0 -9,26 25,76 41,60 134,159 143,150 3,-3 -9,-31 -28,-62 z m 95,-66 c -28,-53 -57,-89 -86,-104 -25,-13 -28,-13 -28,0 0,16 120,150 127,142 3,-2 -3,-19 -13,-38 z m 289,-38 c 36,-17 34,-28 -5,-34 -189,-27 -220,-28 -237,-11 -15,15 -14,18 13,42 28,24 35,25 115,21 47,-3 98,-11 114,-18 z M 2564,13144 c 97,-25 182,-72 250,-138 70,-69 104,-129 86,-151 -6,-7 -32,-18 -58,-24 -172,-36 -495,-71 -506,-53 -3,5 -6,45 -7,88 -2,100 -11,124 -44,124 -30,0 -123,-36 -145,-57 -12,-11 -9,-13 22,-13 83,0 118,-36 94,-95 -17,-39 -64,-105 -76,-105 -5,0 -2,24 6,53 29,108 12,123 -61,56 -68,-63 -72,-134 -10,-175 22,-15 32,-15 66,-5 47,14 54,11 45,-23 -10,-42 -35,-59 -77,-53 -63,8 -74,-8 -73,-102 1,-45 -2,-81 -5,-81 -4,0 -16,15 -26,33 -18,28 -20,49 -19,172 2,268 63,391 253,510 92,57 172,68 285,39 z m 844,-408 c 18,-19 -81,-35 -200,-33 -120,2 -148,20 -61,38 40,9 251,4 261,-5 z m -793,-86 c 15,-6 25,-16 23,-23 -10,-34 -239,-108 -282,-91 -22,8 -20,47 3,68 46,42 196,69 256,46 z m 815,-92 c 38,-20 50,-34 83,-98 50,-101 59,-165 62,-480 6,-462 -54,-811 -184,-1071 -38,-74 -54,-100 -182,-279 -33,-47 -86,-128 -117,-180 -111,-190 -255,-363 -494,-596 -162,-158 -286,-258 -372,-301 -138,-69 -261,-175 -306,-263 -19,-38 -22,-53 -16,-115 7,-80 -7,-260 -33,-421 -24,-143 -26,-313 -7,-398 29,-125 115,-266 229,-373 82,-77 155,-98 352,-98 h 150 l 75,38 c 66,33 229,81 343,101 l 38,7 -5,-38 c -3,-21 -10,-101 -16,-178 -28,-378 -67,-626 -136,-868 -28,-99 -246,-600 -318,-732 -24,-44 -50,-81 -59,-83 -24,-5 -362,125 -492,190 -145,72 -366,217 -495,326 -140,117 -288,276 -362,388 -135,204 -320,581 -333,679 -4,28 -20,73 -36,100 -40,72 -86,217 -108,342 -16,90 -19,146 -17,333 5,305 43,558 122,796 52,158 110,264 213,394 50,63 119,155 153,204 138,200 357,433 908,961 319,306 497,493 603,633 36,48 104,169 181,322 156,309 174,353 192,461 17,105 65,243 96,277 33,35 53,41 153,41 75,1 99,-3 135,-21 z m 16206,-54 c 89,-54 147,-101 310,-254 177,-166 329,-330 388,-420 24,-36 53,-96 66,-134 12,-37 42,-96 66,-130 78,-110 95,-137 145,-237 176,-351 237,-599 269,-1084 24,-377 2,-566 -72,-602 -12,-7 -42,-15 -65,-18 -49,-8 -83,-42 -83,-84 0,-56 -102,-232 -300,-516 -131,-188 -235,-311 -415,-490 -180,-180 -291,-267 -371,-290 -59,-17 -462,-218 -636,-318 -54,-30 -139,-86 -190,-124 -51,-38 -145,-103 -208,-146 -153,-102 -348,-266 -528,-445 -196,-195 -384,-425 -367,-451 2,-5 -1,-13 -8,-19 -17,-13 -428,-152 -451,-152 -18,0 -18,7 -12,128 7,136 7,133 32,352 17,152 45,259 88,347 14,29 26,57 26,62 0,4 15,28 33,52 40,56 49,70 87,142 17,32 57,98 89,145 33,48 69,110 81,137 13,28 26,57 30,65 4,8 18,17 31,20 15,4 28,17 34,36 15,46 40,79 145,193 172,187 499,481 744,669 190,146 316,261 475,437 136,149 204,205 249,205 45,0 113,43 181,115 85,90 126,161 153,267 18,73 20,102 15,238 -7,183 -21,250 -84,377 -61,126 -149,221 -247,267 -99,47 -164,61 -291,61 -109,0 -111,0 -155,-32 -57,-42 -117,-115 -146,-178 -65,-139 5,-416 138,-544 32,-31 58,-59 58,-62 0,-3 -47,-11 -104,-18 -87,-11 -108,-11 -132,0 -63,31 -86,130 -83,364 5,406 97,754 313,1185 70,139 108,205 333,585 56,94 104,182 108,197 8,32 82,103 128,123 48,21 68,18 133,-21 z m -17413,-48 c 3,-7 -8,-51 -24,-97 -16,-46 -29,-96 -29,-110 0,-15 15,-56 33,-91 l 32,-65 -38,30 c -91,74 -107,127 -67,227 40,102 78,145 93,106 z m 217,-11 c 9,-11 9,-22 2,-44 -17,-50 3,-65 92,-69 42,-2 76,-8 76,-13 0,-14 -77,-49 -110,-49 -56,0 -153,111 -136,155 5,13 37,32 57,34 4,1 12,-6 19,-14 z m 532,-82 c 11,-9 18,-30 18,-50 0,-27 -9,-43 -49,-81 -76,-73 -89,-119 -26,-90 66,30 46,-66 -22,-100 -36,-19 -153,-41 -153,-29 0,4 11,17 25,31 14,14 25,35 25,46 0,28 24,74 64,118 44,50 48,64 25,101 -22,36 -24,57 -6,64 27,11 81,6 99,-10 z m -232,-42 c 0,-22 -4,-42 -9,-45 -12,-8 -23,41 -16,65 11,33 25,21 25,-20 z m -330,-147 c 71,-69 1,-47 -83,26 -26,23 -52,51 -58,62 -14,26 91,-40 141,-88 z m 290,-7 c 0,-18 -91,-84 -157,-114 -64,-29 -141,-29 -208,2 l -40,18 68,8 c 47,5 82,16 115,36 25,15 67,36 92,45 55,21 130,24 130,5 z m 16485,-1358 c 70,-13 116,-35 173,-83 104,-86 184,-212 221,-346 24,-86 29,-243 11,-330 -17,-79 -80,-206 -136,-275 -68,-82 -129,-118 -208,-123 -125,-8 -295,47 -387,126 -44,38 -72,83 -63,105 3,8 51,31 107,52 287,105 412,189 437,293 23,97 -6,218 -74,311 -50,68 -119,101 -223,108 -73,5 -82,3 -137,-26 -65,-35 -88,-38 -106,-16 -17,20 5,53 72,106 79,62 151,94 249,108 3,1 32,-4 64,-10 z m -43,-276 c 64,-68 101,-146 105,-227 4,-59 1,-77 -16,-104 -34,-53 -76,-73 -151,-70 -82,4 -86,17 -28,87 87,106 98,124 98,156 0,51 -88,125 -149,125 -12,0 -57,-18 -101,-40 -44,-22 -82,-40 -85,-40 -29,0 66,75 159,124 30,16 65,26 90,26 35,0 48,-6 78,-37 z m -127,-113 c 10,-11 18,-36 19,-57 1,-34 -3,-40 -36,-56 -62,-31 -170,-4 -154,38 5,15 14,16 54,11 105,-16 102,-18 87,52 -9,37 3,42 30,12 z m -495,-229 c 0,-10 -100,-55 -158,-71 -50,-13 -137,-18 -147,-8 -24,23 34,61 119,78 56,11 186,12 186,1 z m 5,-126 c 0,-12 -50,-19 -71,-11 -9,3 -12,11 -9,16 8,14 80,9 80,-5 z m 33,-129 c -24,-18 -156,-62 -163,-54 -12,12 5,45 28,56 12,6 51,11 87,11 55,0 62,-2 48,-13 z m 130,-125 c 44,-32 61,-66 43,-84 -24,-24 -173,75 -156,102 13,21 71,12 113,-18 z M 2970,9020 c 0,-18 -62,-41 -108,-42 -26,0 -74,10 -107,21 -32,12 -62,22 -65,23 -3,0 15,4 40,7 63,8 240,2 240,-9 z m -456,-4 c 63,-19 125,-63 133,-94 7,-29 16,-21 -162,-146 -155,-110 -266,-211 -295,-271 -28,-58 -21,-105 29,-182 72,-112 173,-174 293,-181 85,-5 146,21 190,82 35,48 34,85 -1,180 -12,32 -19,61 -16,64 10,10 82,-69 111,-121 51,-94 32,-178 -62,-271 -88,-87 -194,-120 -358,-114 -91,3 -109,7 -169,36 -103,51 -191,164 -245,314 -31,87 -42,258 -22,352 17,82 83,208 130,249 113,97 312,143 444,103 z m 672,-81 c -11,-8 -45,-24 -75,-36 -57,-21 -223,-61 -229,-55 -6,7 107,67 161,86 28,11 77,19 107,19 50,0 53,-1 36,-14 z m 110,-74 c -17,-26 -230,-125 -286,-132 -53,-7 -32,18 50,59 117,59 253,101 236,73 z m 166,-157 c 66,-46 236,-272 301,-400 30,-59 72,-204 82,-284 4,-30 11,-65 16,-77 4,-11 11,-47 14,-80 4,-32 13,-89 21,-126 8,-38 11,-79 8,-92 -3,-13 0,-41 7,-62 12,-36 19,-225 21,-583 1,-134 -21,-315 -92,-765 -49,-315 -78,-542 -90,-709 -11,-146 -26,-217 -70,-316 -46,-105 -56,-185 -42,-337 15,-162 42,-259 79,-290 57,-47 200,-141 258,-170 105,-53 244,-94 365,-107 212,-24 254,-18 339,47 72,56 230,242 292,344 28,46 54,83 58,83 9,0 182,-381 220,-487 16,-43 49,-159 74,-258 85,-334 127,-565 157,-853 11,-103 25,-209 31,-236 14,-61 6,-69 -84,-85 -112,-20 -130,-21 -352,-21 -736,-2 -1251,131 -1585,409 -370,307 -693,722 -869,1116 -128,289 -183,544 -176,825 2,85 10,191 19,235 32,173 119,502 170,647 74,211 201,523 236,581 16,26 36,68 45,95 9,26 36,89 60,139 40,83 48,112 75,275 26,158 41,267 56,393 1,17 8,75 14,130 12,103 12,104 -24,520 -29,317 -28,352 7,398 27,36 125,97 196,124 52,19 114,10 163,-23 z m -952,-144 c 0,-29 -86,-42 -138,-21 -53,22 -37,31 53,31 48,0 85,-4 85,-10 z m 385,-82 c 8,-27 12,-107 4,-119 -9,-16 -39,41 -39,75 0,46 24,76 35,44 z m -546,-15 c 5,-10 11,-39 13,-66 6,-60 27,-83 91,-97 29,-6 73,-16 100,-22 56,-12 61,-32 12,-48 -58,-19 -182,17 -227,66 -33,38 -53,141 -33,174 10,16 33,12 44,-7 z m 675,-262 c 26,-29 12,-57 -38,-76 -57,-22 -80,-17 -84,17 -7,60 83,103 122,59 z m 16572,-127 c 15,-26 51,-108 79,-183 29,-75 82,-202 118,-283 76,-169 92,-224 106,-367 14,-132 14,-587 1,-762 -17,-212 -54,-368 -122,-502 -16,-32 -43,-100 -59,-150 -16,-50 -44,-116 -61,-146 -67,-119 -188,-307 -217,-337 -16,-17 -41,-54 -55,-81 -23,-47 -110,-170 -189,-269 -94,-118 -387,-330 -605,-438 -165,-82 -569,-182 -813,-201 -41,-3 -188,1 -328,9 -140,8 -266,13 -280,11 -14,-2 -80,-6 -146,-9 -66,-4 -149,-8 -185,-11 -36,-2 -108,-7 -160,-10 -236,-14 -400,-33 -610,-71 -259,-48 -377,-83 -535,-160 -60,-29 -132,-59 -160,-66 -65,-16 -116,-48 -190,-118 -80,-75 -136,-117 -179,-135 -32,-14 -35,-18 -30,-45 6,-25 3,-31 -19,-39 -34,-13 -40,-39 -32,-135 5,-66 3,-85 -10,-101 -15,-19 -16,-19 -28,-2 -28,43 -36,52 -40,47 -3,-3 -7,-39 -11,-80 -3,-40 -10,-78 -16,-84 -14,-14 -45,18 -58,62 -29,96 -49,353 -37,477 6,65 11,82 32,101 23,21 24,25 12,58 -11,29 -10,41 5,81 89,231 557,668 971,905 61,35 122,76 137,92 15,16 54,40 85,54 32,14 85,39 119,55 84,40 156,55 479,100 448,63 563,86 720,144 50,18 147,45 216,59 69,14 152,35 185,47 156,55 185,60 344,63 215,5 264,23 418,155 86,75 155,164 176,228 8,27 26,132 39,234 34,259 26,296 -90,434 -72,85 -134,129 -225,156 -89,27 -205,23 -291,-11 -100,-40 -212,-159 -224,-238 -7,-48 -30,-74 -57,-66 -34,10 -46,34 -46,95 0,119 119,280 445,604 192,191 324,301 435,364 41,23 104,66 140,96 108,91 254,183 424,270 191,97 307,144 358,145 34,0 40,-4 64,-46 z M 18390,6753 c 56,-24 95,-69 130,-148 40,-88 54,-165 53,-300 0,-205 -38,-311 -145,-410 -114,-106 -292,-205 -320,-177 -45,45 56,314 163,437 79,91 100,143 100,253 0,94 -25,156 -91,223 -45,45 -65,58 -108,69 -70,16 -129,8 -159,-23 -13,-13 -37,-61 -52,-108 -26,-75 -30,-81 -36,-56 -9,33 2,112 20,147 21,40 68,79 121,101 68,27 256,23 324,-8 z m -812,-167 c 3,-24 -6,-38 -55,-83 -72,-68 -213,-163 -241,-163 -16,0 -24,9 -32,40 -6,23 -8,49 -5,60 9,30 70,77 148,117 142,71 180,77 185,29 z m 622,12 c 65,-34 85,-79 85,-193 -1,-152 -47,-221 -150,-219 -58,0 -105,22 -157,72 -57,55 -52,62 46,62 105,0 126,14 133,86 6,67 -8,99 -56,124 -52,26 -71,58 -45,77 27,20 95,16 144,-9 z m -500,-150 c 41,-96 31,-136 -42,-157 -32,-10 -61,-32 -113,-87 -39,-41 -77,-74 -85,-74 -18,0 -110,90 -110,107 0,7 11,13 25,13 23,0 29,8 26,36 -1,7 13,24 31,39 60,51 140,71 152,39 9,-24 24,-8 56,62 16,35 32,64 35,64 3,0 14,-19 25,-42 z m 182,-208 c 39,-81 41,-78 -84,-161 -168,-113 -185,-119 -214,-74 -24,37 -5,73 78,150 86,79 156,127 183,123 11,-2 27,-18 37,-38 z m 186,-169 c 4,-51 -33,-242 -54,-283 -34,-65 -118,-41 -231,66 l -76,72 84,60 c 115,82 135,94 193,115 71,26 80,22 84,-30 z M 4610,5650 c 0,-6 -33,-44 -74,-85 -88,-88 -114,-97 -199,-65 -31,12 -57,24 -57,26 0,3 22,2 49,-2 68,-9 109,8 192,77 70,58 89,69 89,49 z m 160,4 c 0,-17 -78,-110 -133,-157 -134,-117 -158,-93 -38,37 79,84 171,149 171,120 z m 185,-4 c 11,-18 -27,-73 -104,-150 -71,-71 -179,-160 -194,-160 -43,0 128,219 227,291 41,30 61,36 71,19 z m 234,-106 c 269,-149 550,-399 782,-694 323,-411 384,-541 635,-1351 102,-331 182,-544 238,-638 46,-76 82,-184 105,-316 23,-130 48,-202 100,-283 77,-119 175,-203 304,-262 79,-36 207,-70 261,-70 138,0 428,131 542,244 40,41 55,65 74,124 74,234 -23,425 -261,509 -138,49 -456,40 -511,-14 -24,-24 -38,-106 -38,-217 0,-111 12,-156 52,-202 54,-61 144,-95 253,-95 141,0 238,84 252,217 14,129 -87,236 -222,237 -62,0 -109,-23 -135,-66 -22,-35 -26,-97 -10,-127 22,-42 134,-44 210,-5 30,15 34,23 31,58 -3,28 18,20 39,-15 29,-48 27,-118 -5,-152 -38,-41 -90,-59 -171,-59 -90,1 -155,27 -179,74 -20,38 -34,173 -23,217 11,41 36,57 136,89 117,36 186,30 299,-27 156,-80 217,-155 218,-270 0,-89 -35,-159 -120,-239 -121,-112 -278,-167 -455,-158 -302,16 -538,234 -543,502 -2,72 1,87 30,145 35,69 132,185 216,256 56,49 66,51 102,28 22,-15 30,-14 115,11 65,19 114,27 170,27 226,0 541,-148 870,-408 108,-86 451,-429 553,-555 73,-90 319,-431 442,-614 72,-107 75,-123 34,-170 -65,-74 -307,-217 -584,-344 -245,-112 -387,-161 -530,-182 -68,-9 -390,-13 -450,-4 -16,2 -77,9 -135,15 -330,34 -711,132 -935,241 -133,64 -440,233 -485,266 -284,214 -643,714 -781,1088 -31,85 -33,98 -35,240 -1,112 -6,159 -18,188 -19,42 -52,248 -61,377 -16,218 -43,378 -89,534 -14,49 -37,150 -51,225 -41,225 -153,526 -315,846 -112,222 -182,328 -275,422 l -81,82 130,129 c 146,143 192,182 220,182 11,0 49,-16 85,-36 z m -914,-138 c 17,-12 18,-18 7,-66 -18,-77 -103,-245 -165,-325 -29,-39 -59,-81 -66,-94 -19,-34 -15,-103 7,-147 43,-83 183,-197 269,-219 97,-25 180,20 320,171 47,52 89,92 93,89 14,-9 43,-183 36,-219 -14,-72 -134,-190 -219,-216 -94,-28 -287,-16 -409,25 -330,112 -515,446 -398,719 43,102 237,234 410,280 70,19 92,19 115,2 z m 430,-207 c 7,-10 -81,-99 -97,-99 -23,0 11,71 44,94 26,19 44,20 53,5 z m 92,-114 c 55,-43 194,-227 181,-240 -2,-3 -19,-1 -36,4 -38,11 -46,2 -38,-42 13,-70 -40,-74 -74,-7 -22,43 -25,96 -10,149 l 9,33 -48,-6 c -61,-8 -101,18 -101,66 0,67 58,87 117,43 z m -427,-51 c 0,-3 -13,-22 -30,-42 -43,-54 -57,-132 -36,-204 8,-30 25,-63 36,-73 29,-27 25,-45 -10,-45 -50,0 -106,35 -135,83 -30,52 -32,104 -6,155 20,38 80,101 116,120 21,12 65,16 65,6 z m 54,-146 c 24,-34 20,-50 -11,-46 -23,2 -29,8 -31,36 -4,39 18,44 42,10 z m 142,-124 c -10,-50 -74,-114 -114,-114 -40,0 -42,21 -8,71 28,41 119,106 124,89 2,-6 1,-27 -2,-46 z m 12950,-771 c -12,-498 -55,-722 -192,-995 -95,-191 -218,-361 -429,-598 -203,-227 -354,-337 -704,-514 -521,-263 -623,-291 -1041,-290 -193,0 -257,4 -360,22 -249,42 -424,107 -765,282 -445,228 -731,378 -798,418 -45,26 -87,43 -120,47 -29,3 -151,40 -272,80 -222,75 -307,95 -402,95 -64,0 -83,-7 -83,-30 0,-26 51,-40 123,-33 80,7 160,-13 340,-84 268,-105 860,-391 1047,-506 72,-44 75,-47 74,-83 -3,-80 -208,-439 -390,-681 -105,-140 -246,-288 -355,-375 -125,-98 -254,-175 -545,-325 l -269,-138 h -605 c -673,0 -665,-1 -813,67 -97,44 -175,68 -222,68 -35,0 -55,15 -55,42 0,24 -71,74 -210,149 -290,155 -401,262 -650,624 -278,404 -578,795 -835,1088 -60,69 -127,146 -149,172 -21,25 -64,60 -95,77 -35,20 -102,78 -181,158 -129,131 -162,154 -340,242 -204,100 -299,119 -632,127 -167,4 -251,10 -259,18 -19,19 27,87 100,149 129,109 344,242 416,258 17,4 152,7 300,8 248,1 278,0 370,-21 127,-29 276,-76 337,-107 26,-13 54,-24 63,-24 57,0 233,-57 340,-109 181,-89 243,-137 482,-367 120,-115 443,-424 718,-685 275,-262 583,-555 685,-652 110,-105 203,-186 230,-199 37,-18 61,-22 135,-21 56,1 107,7 135,18 25,9 79,27 120,40 188,61 435,289 501,464 30,81 41,159 29,219 -5,28 -42,126 -81,217 -80,185 -119,239 -203,283 -48,25 -59,27 -171,26 -130,-1 -219,-22 -373,-86 -212,-88 -241,-158 -148,-354 103,-217 224,-376 311,-410 67,-25 181,-16 235,20 50,33 115,131 137,205 49,168 -67,404 -209,427 -25,4 -47,0 -77,-16 -46,-23 -211,-175 -211,-194 0,-19 126,-182 161,-209 121,-91 207,5 151,167 -23,68 -40,76 -97,48 -57,-28 -85,-29 -85,-3 0,27 74,88 116,95 110,21 187,-128 155,-299 -6,-33 -19,-71 -29,-85 -24,-32 -99,-69 -156,-76 -40,-6 -51,-3 -86,21 -22,15 -62,58 -89,94 -92,124 -198,342 -186,380 27,86 317,196 512,194 126,-2 193,-80 278,-323 29,-84 36,-119 36,-181 0,-93 -5,-117 -47,-201 -81,-163 -263,-294 -503,-364 -106,-31 -144,-31 -184,0 -18,13 -70,47 -117,74 -91,53 -150,109 -193,183 -48,82 -59,126 -58,236 1,97 -9,151 -29,163 -27,17 -9,140 46,320 43,138 97,258 146,322 20,26 41,63 48,83 24,72 263,222 525,330 50,20 114,50 144,66 58,33 150,54 281,64 47,4 103,8 125,10 62,6 453,7 462,2 4,-3 33,-1 63,4 43,7 75,4 148,-11 51,-11 135,-25 186,-30 106,-11 331,-73 761,-210 402,-127 486,-146 704,-155 155,-7 223,-25 287,-76 74,-58 143,-98 203,-115 76,-23 212,-14 306,19 226,79 379,204 465,382 52,107 72,190 76,305 6,171 -42,262 -222,426 -179,162 -196,187 -151,219 59,42 348,102 882,183 33,5 269,10 524,11 l 463,1 z m -2006,-14 c 105,-64 370,-322 412,-401 31,-59 29,-152 -6,-282 -40,-149 -84,-224 -196,-336 -112,-112 -175,-147 -282,-161 -100,-13 -228,-2 -281,25 -38,19 -42,25 -45,61 -3,52 30,110 83,146 44,30 104,49 243,79 159,33 248,96 307,214 30,59 34,147 9,218 -19,58 -78,126 -123,145 -47,19 -79,50 -96,91 -10,23 -20,32 -37,32 -29,0 -157,-60 -204,-96 -67,-51 -100,-137 -79,-204 19,-63 126,-136 215,-147 43,-5 51,-3 75,22 26,25 27,30 22,98 -6,82 -31,173 -50,180 -18,7 -117,-32 -124,-49 -3,-7 16,-41 41,-75 25,-33 46,-65 46,-70 0,-23 -47,-5 -81,31 -40,42 -61,95 -52,132 24,99 153,88 263,-21 60,-60 90,-124 90,-191 0,-61 -10,-87 -46,-123 -60,-60 -162,-85 -245,-61 -90,27 -311,210 -353,292 -17,33 -17,35 9,74 65,98 400,398 445,398 3,0 21,-10 40,-21 z m -510,-657 c 0,-8 -59,-66 -92,-91 -33,-24 -18,4 25,52 40,43 67,59 67,39 z m 24,-144 c -15,-49 -35,-78 -60,-84 -63,-16 -56,53 8,85 54,27 61,26 52,-1 z m 81,-90 c -18,-86 -62,-143 -95,-123 -23,14 -1,63 58,128 34,36 45,34 37,-5 z m -3365,-983 c 14,-17 5,-51 -16,-59 -35,-13 -73,41 -47,67 12,12 50,7 63,-8 z"
             id="path3206" />
          <path
             d="m 14250,18600 c 0,-23 44,-115 60,-125 36,-22 27,37 -17,108 -26,41 -43,48 -43,17 z"
             id="path3208" />
          <path
             d="m 15482,17079 c -24,-9 -31,-52 -11,-65 13,-8 63,27 67,48 4,19 -26,28 -56,17 z"
             id="path3210" />
          <path
             d="m 2438,13118 c -23,-18 -30,-118 -8,-118 18,0 51,64 48,94 -3,34 -17,42 -40,24 z"
             id="path3212" />
          <path
             d="m 2686,13001 c -15,-16 -30,-19 -80,-18 -54,2 -69,-2 -106,-26 -24,-17 -39,-32 -33,-38 4,-4 62,-14 128,-20 203,-20 260,8 175,84 -46,42 -60,45 -84,18 z"
             id="path3214" />
          <path
             d="m 18717,10223 c -14,-13 -7,-70 11,-85 26,-24 62,-6 62,30 0,42 -49,79 -73,55 z"
             id="path3216" />
        </g>
        <path
           style="fill:none;stroke:none;stroke-width:1px;stroke-linecap:butt;stroke-linejoin:miter;stroke-opacity:1"
           d="m 413.4856,195.66515 c 0,0 15.95684,-8.38637 39.54896,-11.4636 23.59212,-3.07723 30.60389,17.61365 30.60389,17.61365 0,0 54.62089,99.24076 86.6754,96.93284"
           id="path325075"
           sodipodi:nodetypes="cscc" />
        <text
           xml:space="preserve"
           style="font-size:64px;line-height:1.25;font-family:Lumos;-inkscape-font-specification:Lumos"
           id="text325701"><textPath
             xlink:href="#path325075"
             id="textPath326551"><tspan
               id="tspan325699"
               style="font-size:64px"><tspan
   style="font-size:53.3333px;letter-spacing:-8px"
   id="tspan327532">H</tspan><tspan
   style="letter-spacing:-7px"
   id="tspan329836">o</tspan>me</tspan></textPath></text>
        <path
           style="fill:none;stroke:none;stroke-width:1px;stroke-linecap:butt;stroke-linejoin:miter;stroke-opacity:1"
           d="m 267.40816,227.95033 c 0,0 -3.279,-6.38956 14.67153,-21.77572 17.95053,-15.38617 36.67036,-2.56436 36.67036,-2.56436 l 76.16152,42.05552 c 0,0 17.43765,10.001 49.7486,2.82079"
           id="path317887"
           sodipodi:nodetypes="csccc" />
        <text
           xml:space="preserve"
           style="font-size:64px;line-height:1.25;font-family:Lumos;-inkscape-font-specification:Lumos"
           id="text318593"><textPath
             xlink:href="#path317887"
             id="textPath319759"><tspan
               id="tspan323259"
               style="font-size:66.6667px;letter-spacing:-8px">L</tspan><tspan
               id="tspan318591"
               style="font-size:66.6667px"><tspan
   style="letter-spacing:-5px"
   id="tspan324185">o</tspan>st</tspan></textPath></text>
        <path
           style="fill:none;stroke:none;stroke-width:1px;stroke-linecap:butt;stroke-linejoin:miter;stroke-opacity:1"
           d="m 134.54514,333.64295 c 0,0 -3.26389,-2.17592 7.25312,-25.38587 10.517,-23.20994 29.01243,-22.84729 29.01243,-22.84729 l 81.2348,2.53859 c 0,0 28.28712,0 60.92611,-24.66057"
           id="path304459"
           sodipodi:nodetypes="csccc" />
        <text
           xml:space="preserve"
           style="font-size:64px;line-height:1.25;font-family:Lumos;-inkscape-font-specification:Lumos"
           id="text304961"><textPath
             xlink:href="#path304459"
             id="textPath306253"><tspan
               id="tspan304959"
               style="font-size:64px"><tspan
   style="font-size:64px;letter-spacing:-12px"
   id="tspan307658">A</tspan><tspan
   style="font-size:61.3333px;letter-spacing:-5px"
   id="tspan314789">w</tspan>ay</tspan></textPath></text>
        <path
           style="fill:none;stroke:none;stroke-width:1px;stroke-linecap:butt;stroke-linejoin:miter;stroke-opacity:1"
           d="m 92.477121,479.79307 c 0,0 -26.552862,-0.0997 -22.121977,-35.17757 4.351865,-34.45226 34.452256,-28.64977 34.452256,-28.64977 l 66.36594,-37.71616 c 0,0 25.38588,-20.67136 25.74853,-30.82571"
           id="path277957"
           sodipodi:nodetypes="csccc" />
        <text
           xml:space="preserve"
           style="font-size:42.6667px;line-height:1.25;font-family:Lumos;-inkscape-font-specification:Lumos"
           id="text278547"><textPath
             xlink:href="#path277957"
             id="textPath279765"
             style="font-size:42.6667px"><tspan
   style="font-size:64px;letter-spacing:-15px"
   id="tspan287392">V</tspan><tspan
   id="tspan301365"
   style="font-size:64px;letter-spacing:-5px">ac</tspan><tspan
   style="font-size:53.3333px"
   id="tspan290305">at</tspan><tspan
   id="tspan301367"
   style="font-size:48px">io</tspan>n</textPath></text>
        <path
           style="fill:none;stroke:none;stroke-width:1px;stroke-linecap:butt;stroke-linejoin:miter;stroke-opacity:1"
           d="m 111.3352,626.30585 c 0,0 -35.177569,11.60497 -40.6174,-10.15435 -5.439831,-21.75933 1.087966,-44.60661 1.087966,-44.60661 0,0 55.848934,-46.78255 55.486274,-59.11283 -0.36266,-12.33029 12.69294,-0.72531 6.89045,-55.84893"
           id="path263339" />
        <text
           xml:space="preserve"
           style="font-size:64px;line-height:1.25;font-family:Lumos;-inkscape-font-specification:Lumos"
           id="text263841"><textPath
             xlink:href="#path263339"
             id="textPath264959"><tspan
               id="tspan263839"
               style="font-size:64px"><tspan
   style="letter-spacing:-15px"
   id="tspan266024">F</tspan>r</tspan><tspan
               id="tspan273630"
               style="font-size:58.6667px">i</tspan><tspan
               id="tspan273628"
               style="font-size:58.6667px">ends</tspan></textPath></text>
        <path
           style="fill:none;stroke:none;stroke-width:1px;stroke-linecap:butt;stroke-linejoin:miter;stroke-opacity:1"
           d="m 192.93266,749.60868 c 0,0 -6.89045,19.94605 -33.00164,13.7809 -26.11118,-6.16514 -22.48463,-23.5726 -22.48463,-23.5726 l 11.96763,-80.14684 c 0,0 1.81328,-45.69457 -14.86887,-58.38751"
           id="path250333" />
        <text
           xml:space="preserve"
           style="font-size:64px;line-height:1.25;font-family:Lumos;-inkscape-font-specification:Lumos"
           id="text251055"><textPath
             xlink:href="#path250333"
             id="textPath251701"><tspan
               id="tspan251053"
               style="font-size:64px"><tspan
   style="letter-spacing:-15px"
   id="tspan252514">P</tspan><tspan
   style="letter-spacing:-5px"
   id="tspan254152">a</tspan>r</tspan><tspan
               id="tspan262836"
               style="font-size:58.6667px">e</tspan><tspan
               id="tspan256454"
               style="font-size:53.3333px">nt</tspan><tspan
               id="tspan258238"
               style="font-size:48px">s</tspan></textPath></text>
        <path
           style="fill:none;stroke:none;stroke-width:1px;stroke-linecap:butt;stroke-linejoin:miter;stroke-opacity:1"
           d="m 322.40064,829.39286 c 0,0 -4.35187,16.68215 -24.66057,22.84729 -20.3087,6.16514 -33.72695,-16.31949 -33.72695,-16.31949 l -25.74853,-77.60825 c 0,0 -19.22074,-33.3643 -42.43068,-41.34272"
           id="path243619" />
        <text
           xml:space="preserve"
           style="font-size:64px;line-height:1.25;font-family:Lumos;-inkscape-font-specification:Lumos"
           id="text244121"><textPath
             xlink:href="#path243619"
             id="textPath245755"><tspan
               id="tspan244119"
               style="font-size:64px"><tspan
   style="letter-spacing:-5px"
   id="tspan247140">Le</tspan>sson</tspan></textPath></text>
        <path
           style="fill:none;stroke:none;stroke-width:1px;stroke-linecap:butt;stroke-linejoin:miter;stroke-opacity:1"
           d="m 484.14494,856.59201 c 0,0 -9.06639,4.71452 -25.02323,13.0556 -15.95683,8.34107 -30.46305,6.16514 -38.80412,-2.90124 -8.34107,-9.06639 -62.37673,-61.65142 -62.37673,-61.65142 0,0 -31.55101,-17.77011 -64.19,-6.89045"
           id="path232890"
           sodipodi:nodetypes="csscc" />
        <text
           xml:space="preserve"
           style="font-size:64px;line-height:1.25;font-family:Lumos;-inkscape-font-specification:Lumos"
           id="text233744"><textPath
             xlink:href="#path232890"
             id="textPath234830"><tspan
               id="tspan233742"
               style="font-size:64px"><tspan
   style="font-size:53.3333px;letter-spacing:-18px"
   id="tspan236855">W</tspan>ork</tspan></textPath></text>
        <path
           style="fill:none;stroke:none;stroke-width:1px;stroke-linecap:butt;stroke-linejoin:miter;stroke-opacity:1"
           d="m 610.34901,776.80783 c 0,0 11.60497,22.84729 -1.81328,34.81492 -13.41824,11.96763 -18.13276,16.31949 -40.25474,9.06638 -22.12198,-7.2531 -70.35515,-17.77011 -70.35515,-17.77011 0,0 -28.64977,-9.06638 -64.19,14.86887"
           id="path223452" />
        <text
           xml:space="preserve"
           style="font-size:64px;line-height:1.25;font-family:Lumos;-inkscape-font-specification:Lumos"
           id="text224078"><textPath
             xlink:href="#path223452"
             id="textPath225244"><tspan
               id="tspan224076"
               style="font-size:64px"><tspan
                 style="letter-spacing:-13px"
                 id="tspan226489">D</tspan><tspan
                 style="letter-spacing:-5px"
                 id="tspan229909">o</tspan></tspan><tspan
               id="tspan228237"
               style="font-size:53.3333px">cto</tspan><tspan
               id="tspan232775"
               style="font-size:50.6667px">r</tspan></textPath></text>
        <path
           style="fill:none;stroke:none;stroke-width:1px;stroke-linecap:butt;stroke-linejoin:miter;stroke-opacity:1"
           d="m 699.19958,663.2967 c 0,0 19.94605,-1.81328 17.0448,23.5726 -2.90124,25.38587 -21.03401,29.37508 -21.03401,29.37508 l -70.7178,11.60498 c 0,0 -32.63898,11.60497 -52.22237,34.45226"
           id="path190824"
           sodipodi:nodetypes="csccc" />
        <text
           xml:space="preserve"
           style="font-size:40px;line-height:1.25;font-family:Lumos;-inkscape-font-specification:Lumos"
           id="text192118"><textPath
             xlink:href="#path190824"
             id="textPath193988"><tspan
               style="font-size:53.3333px;letter-spacing:-10px"
               id="tspan196404">T</tspan><tspan
               style="font-size:53.3333px;letter-spacing:-3px"
               id="tspan200208">r</tspan><tspan
               style="font-size:40px"
               id="tspan206018">aveling</tspan></textPath></text>
        <path
           style="fill:none;stroke:none;stroke-width:1px;stroke-linecap:butt;stroke-linejoin:miter;stroke-opacity:1"
           d="m 740.90496,501.5524 c 0,0 10.60526,9.68105 18.44525,22.73261 2.10826,3.50971 -1.51092,4.47129 -2.12577,9.54372 -2.90125,23.93525 -4.71452,24.66056 -10.517,31.55101 -5.80249,6.89046 -23.5726,15.95684 -23.5726,15.95684 0,0 -47.50786,39.52944 -44.96927,42.06803 2.53859,2.53858 0,0.36265 0,0.36265"
           id="path180025"
           sodipodi:nodetypes="cssscsc" />
        <text
           xml:space="preserve"
           style="font-size:64px;line-height:1.25;font-family:Lumos;-inkscape-font-specification:Lumos"
           id="text180747"><textPath
             xlink:href="#path180025"
             id="textPath182093"><tspan
               id="tspan180745"
               style="font-size:64px"><tspan
   style="font-size:56px;letter-spacing:-10px"
   id="tspan183610">E</tspan><tspan
   style="letter-spacing:-10px"
   id="tspan187266">v</tspan><tspan
   style="letter-spacing:-5px"
   id="tspan189116">e</tspan>nt</tspan></textPath></text>
        <path
           style="fill:none;stroke:none;stroke-width:1px;stroke-linecap:butt;stroke-linejoin:miter;stroke-opacity:1"
           d="m 677.80291,365.19397 c 0,0 19.94605,-12.33028 35.90289,3.2639 15.95683,15.59418 4.35186,39.52944 4.35186,39.52944 0,0 -27.19915,61.28876 -27.19915,73.25638 0,11.96763 0.36265,41.70537 0.36265,41.70537 l 0.36266,-0.36265"
           id="path157896" />
        <text
           xml:space="preserve"
           style="font-size:40px;line-height:1.25;font-family:Lumos;-inkscape-font-specification:Lumos"
           id="text158618"><textPath
             xlink:href="#path157896"
             id="textPath159396"><tspan
               style="font-size:64px"
               id="tspan160553"><tspan
   style="letter-spacing:-10px"
   id="tspan162605">S</tspan><tspan
   id="tspan165233"
   style="letter-spacing:-7px">c</tspan>h</tspan><tspan
               id="tspan176972"
               style="font-size:58.6667px">oo</tspan><tspan
               style="font-size:53.3333px"
               id="tspan169497">l</tspan></textPath></text>
        <path
           style="fill:none;stroke:none;stroke-width:1px;stroke-linecap:butt;stroke-linejoin:miter;stroke-opacity:1"
           d="m 568.46328,249.99931 c 0,0 15.57874,-10.95556 32.69944,-8.04827 17.1207,2.90728 23.90438,20.99708 23.90438,20.99708 0,0 3.55335,12.92129 0.32303,18.0898 -3.23032,5.16851 8.39883,50.71604 6.13761,60.08397 -2.26123,9.36793 13.24431,37.79475 13.24431,37.79475"
           id="path134455"
           sodipodi:nodetypes="cscssc" />
        <text
           xml:space="preserve"
           style="font-size:40px;line-height:1.25;font-family:Lumos;-inkscape-font-specification:Lumos"
           id="text135317"><textPath
             xlink:href="#path134455"
             id="textPath137375"><tspan
   style="font-size:64px;letter-spacing:-8px"
   id="tspan138315">C</tspan><tspan
   style="font-size:48px"
   id="tspan140639"><tspan
   style="letter-spacing:-10px"
   id="tspan146553">H</tspan>U</tspan><tspan
   id="tspan150767"
   style="font-size:42.6667px">R</tspan>C<tspan
   style="font-size:34.6667px"
   id="tspan154111">H</tspan></textPath></text>
      </g>
    </g>
  </g>
</svg>
