<?xml version="1.0" encoding="UTF-8" standalone="no"?>
<!-- Created with Inkscape (http://www.inkscape.org/) -->

<svg
   width="210mm"
   height="297mm"
   viewBox="0 0 210 297"
   version="1.1"
   id="svg3864"
   inkscape:version="1.1.1 (3bf5ae0d25, 2021-09-20)"
   sodipodi:docname="names.svg"
   xmlns:inkscape="http://www.inkscape.org/namespaces/inkscape"
   xmlns:sodipodi="http://sodipodi.sourceforge.net/DTD/sodipodi-0.dtd"
   xmlns:xlink="http://www.w3.org/1999/xlink"
   xmlns="http://www.w3.org/2000/svg"
   xmlns:svg="http://www.w3.org/2000/svg">
  <sodipodi:namedview
     id="namedview3866"
     pagecolor="#ffffff"
     bordercolor="#666666"
     borderopacity="1.0"
     inkscape:pageshadow="2"
     inkscape:pageopacity="0.0"
     inkscape:pagecheckerboard="0"
     inkscape:document-units="mm"
     showgrid="false"
     inkscape:zoom="1.6612489"
     inkscape:cx="396.99049"
     inkscape:cy="224.2289"
     inkscape:window-width="2560"
     inkscape:window-height="1377"
     inkscape:window-x="-8"
     inkscape:window-y="-8"
     inkscape:window-maximized="1"
     inkscape:current-layer="layer2" />
  <defs
     id="defs3861" />
  <g
     inkscape:label="Layer 1"
     inkscape:groupmode="layer"
     id="layer1">
    <text
       xml:space="preserve"
       style="font-size:8.46667px;line-height:1.25;font-family:Lumos;-inkscape-font-specification:Lumos;stroke-width:0.264583"
       id="text8177"><textPath
         xlink:href="#path28400"
         id="textPath28500"><tspan
           id="tspan8175"
           style="font-size:8.46667px;stroke-width:0.264583">Jason</tspan></textPath></text>
    <text
       xml:space="preserve"
       style="font-size:8.46667px;line-height:1.25;font-family:Lumos;-inkscape-font-specification:Lumos;stroke-width:0.264583"
       x="104.52216"
       y="41.416054"
       id="text9897"><tspan
         sodipodi:role="line"
         style="font-size:8.46667px;stroke-width:0.264583"
         x="104.52216"
         y="41.416054"
         id="tspan9899">Kara</tspan></text>
    <text
       xml:space="preserve"
       style="font-size:8.46667px;line-height:1.25;font-family:Lumos;-inkscape-font-specification:Lumos;stroke-width:0.264583"
       x="111.26909"
       y="69.805908"
       id="text12809"><tspan
         sodipodi:role="line"
         id="tspan12807"
         style="font-size:8.46667px;stroke-width:0.264583"
         x="111.26909"
         y="69.805908">Lizzy</tspan></text>
    <text
       xml:space="preserve"
       style="font-size:8.46667px;line-height:1.25;font-family:Lumos;-inkscape-font-specification:Lumos;stroke-width:0.264583"
       x="117.78811"
       y="93.691902"
       id="text14199"><tspan
         sodipodi:role="line"
         id="tspan14197"
         style="font-size:8.46667px;stroke-width:0.264583"
         x="117.78811"
         y="93.691902">Ronan</tspan></text>
    <text
       xml:space="preserve"
       style="font-size:16.9333px;line-height:1.25;font-family:Lumos;-inkscape-font-specification:Lumos;stroke-width:0.264583"
       x="-118.91302"
       y="57.942902"
       id="text15919"
       transform="rotate(-90)"><tspan
         sodipodi:role="line"
         id="tspan15917"
         style="font-size:16.9333px;stroke-width:0.264583"
         x="-118.91302"
         y="57.942902">J</tspan></text>
    <text
       xml:space="preserve"
       style="font-size:14.1111px;line-height:1.25;font-family:Lumos;-inkscape-font-specification:Lumos;stroke-width:0.264583"
       x="-44.344639"
       y="53.700542"
       id="text16979"
       transform="rotate(-90)"><tspan
         sodipodi:role="line"
         id="tspan16977"
         style="font-size:14.1111px;stroke-width:0.264583"
         x="-44.344639"
         y="53.700542">K</tspan></text>
    <text
       xml:space="preserve"
       style="font-size:16.9333px;line-height:1.25;font-family:Lumos;-inkscape-font-specification:Lumos;stroke-width:0.264583"
       x="-74.972511"
       y="57.50634"
       id="text18831"
       transform="rotate(-90)"><tspan
         sodipodi:role="line"
         id="tspan18829"
         style="font-size:16.9333px;stroke-width:0.264583"
         x="-74.972511"
         y="57.50634">E</tspan></text>
    <text
       xml:space="preserve"
       style="font-size:12.7px;line-height:1.25;font-family:Lumos;-inkscape-font-specification:Lumos;stroke-width:0.264583"
       x="-96.427231"
       y="78.012352"
       id="text19879"
       transform="rotate(-90)"><tspan
         sodipodi:role="line"
         id="tspan19877"
         style="font-size:12.7px;stroke-width:0.264583"
         x="-96.427231"
         y="78.012352">R</tspan></text>
    <path
       style="fill:none;stroke:none;stroke-width:0.264583px;stroke-linecap:butt;stroke-linejoin:miter;stroke-opacity:1"
       d="m 108.93912,122.42552 43.6329,-5.30868"
       id="path28400" />
  </g>
  <g
     inkscape:groupmode="layer"
     id="layer2"
     inkscape:label="Layer 2"
     style="display:none">
    <path
       style="fill:#000000;stroke-width:0.254"
       d="m 51.2538,33.181051 c 2.79862,0.10128 4.40292,0.41111 5.55126,1.07208 0.27181,0.15645 0.58172,0.42705 1.16417,1.01648 1.00225,1.01427 1.17196,1.11053 1.95791,1.11053 0.50322,0 0.54573,-0.009 0.8668,-0.18303 0.18569,-0.10066 0.54288,-0.37121 0.79375,-0.60121 0.91502,-0.8389 1.20368,-1.01012 1.80618,-1.07133 0.41689,-0.0423 0.76569,0.009 2.35301,0.34677 2.03737,0.43346 2.61951,0.5007 4.34026,0.50127 1.49085,4.7e-4 1.79614,-0.0232 3.12209,-0.24239 1.08702,-0.17968 2.63093,-0.58041 3.6495,-0.94724 0.36722,-0.13225 1.07351,-0.15814 1.45696,-0.0534 0.13096,0.0358 0.46434,0.1728 0.74083,0.30451 3.04365,1.44985 7.44633,1.89801 14.41979,1.46784 0.7276,-0.0449 3.47795,-0.24682 6.11187,-0.44874 11.8939,-0.9118 17.03911,-1.12573 27.09334,-1.12653 5.40403,-4.3e-4 8.1035,0.0378 14.2875,0.20255 3.01773,0.0804 3.8545,0.10603 13.75833,0.42184 3.18691,0.10162 6.99691,0.22133 8.46667,0.26602 1.46976,0.0447 2.74369,0.0865 2.83095,0.093 0.23408,0.0173 -5.08283,3.18982 -5.58262,3.33102 -2.26206,0.63907 -7.3898,1.80365 -10.66271,2.42164 -13.23131,2.49836 -26.99563,3.49451 -53.38402,3.8635 l -3.64236,0.0509 -0.29993,-0.20266 c -0.16497,-0.11147 -0.75237,-0.48828 -1.30535,-0.83735 -4.34925,-2.74552 -7.62006,-4.45268 -9.49855,-4.95764 -1.15509,-0.31051 -1.92511,-0.29749 -2.59493,0.0439 -0.50269,0.25618 -0.85511,0.34656 -1.35139,0.34656 -0.52517,0 -0.97646,-0.12756 -1.42472,-0.40271 -1.92633,-1.18243 -2.5461,-1.37695 -4.23333,-1.32869 -1.28916,0.0369 -2.26378,0.236 -3.93356,0.80369 -2.4228,0.8237 -4.80322,1.96304 -9.31705,4.45941 -3.1991,1.76926 -4.06572,2.06496 -6.405603,2.18567 -1.214898,0.0627 -3.432794,-0.008 -4.288578,-0.13694 -1.700393,-0.2559 -2.930118,-0.68354 -4.001347,-1.39149 -1.582806,-1.04603 -2.503106,-2.61598 -2.597563,-4.4312 -0.08238,-1.58306 0.468154,-2.98195 1.577589,-4.00865 1.250543,-1.15728 3.042195,-1.77435 5.629862,-1.939 0.904881,-0.0576 0.925455,-0.0576 2.54499,10e-4 z m -2.796852,1.24361 c -2.766308,0.31089 -4.610819,1.29682 -5.409427,2.89146 -0.316817,0.63261 -0.417068,1.11603 -0.385831,1.86054 0.113702,2.71023 2.700676,4.39962 7.276189,4.75165 1.36507,0.10503 3.281241,-0.0721 4.453031,-0.4117 1.81875,-0.52706 3.10582,-1.53274 3.65746,-2.85786 0.43421,-1.043 0.41665,-2.17842 -0.049,-3.16736 -0.37091,-0.78781 -0.8466,-1.30005 -1.71161,-1.84312 -1.70486,-1.07035 -4.838168,-1.55994 -7.830854,-1.22361 z m 28.547662,0.71261 c -0.31936,0.14083 -0.67086,0.48167 -0.84517,0.81954 -0.19758,0.38297 -0.22411,0.94584 -0.0648,1.37583 0.15767,0.4257 0.60095,0.87008 1.00764,1.01015 0.85658,0.295 1.78572,-0.0755 2.17588,-0.86755 0.10185,-0.20679 0.12237,-0.33269 0.12237,-0.75114 0,-0.425 -0.0198,-0.54298 -0.12822,-0.76321 -0.22441,-0.45597 -0.65598,-0.80323 -1.15419,-0.9287 -0.2889,-0.0728 -0.82487,-0.0222 -1.11346,0.10508 z m 42.55962,0.37298 c -6.58988,0.13307 -13.09435,0.45503 -19.76438,0.97831 -2.85366,0.22388 -5.88794,0.49692 -6.17393,0.55558 -0.543,0.11136 -0.84303,0.63633 -0.97584,1.70744 -0.0992,0.80002 5.3e-4,3.19694 0.19619,4.71305 l 0.0333,0.25825 1.96523,-0.0354 c 16.69363,-0.30054 26.71269,-0.72339 36.54628,-1.54244 5.07274,-0.42252 11.74559,-1.15698 12.08954,-1.33066 0.60972,-0.30788 1.0051,-0.9722 1.32003,-2.21787 0.13383,-0.52934 0.36219,-1.85401 0.42997,-2.4942 l 0.035,-0.33073 -0.17717,-1.6e-4 c -0.0975,-1.1e-4 -1.18921,-0.0348 -2.42614,-0.0772 -7.9823,-0.27345 -15.64446,-0.33448 -23.09812,-0.18396 z m -56.30807,0.0994 c -0.46579,0.20581 -0.76838,0.65763 -0.80517,1.20227 -0.0298,0.44083 0.0944,0.79952 0.37735,1.09009 0.27563,0.28303 0.54573,0.41322 0.92864,0.4476 0.97107,0.0872 1.73908,-0.7517 1.54482,-1.68741 -0.19575,-0.94293 -1.16501,-1.44165 -2.04564,-1.05255 z m 82.53916,1.01721 c -0.0645,0.44126 -0.10609,0.81347 -0.0924,0.82714 0.0137,0.0137 0.18682,0.0364 0.38479,0.0506 0.64664,0.0463 1.24821,-0.17873 1.73012,-0.64709 0.24239,-0.23558 0.71829,-0.8525 0.71829,-0.93114 0,-0.0455 -0.50258,-0.0697 -1.88061,-0.0906 l -0.7429,-0.0112 z m 3.10192,-0.22994 c -0.25691,0.53212 -0.65841,1.03831 -1.01768,1.28301 -0.10417,0.071 -0.18957,0.14939 -0.18976,0.1743 -2.2e-4,0.0249 0.1875,0.0368 0.41711,0.0263 0.3953,-0.0179 0.45785,-0.0391 1.1774,-0.39793 1.21309,-0.60497 1.25919,-0.612 3.5645,-0.54383 0.72333,0.0214 0.80965,0.0141 0.97297,-0.0824 0.21272,-0.12561 0.3764,-0.40714 0.3764,-0.6474 v -0.17281 l -0.54239,-0.005 c -0.46169,-0.004 -4.40775,-0.12948 -4.48469,-0.14238 -0.0145,-0.002 -0.13779,0.22616 -0.27386,0.508 z m 5.98886,-0.23859 c 0,0.038 -0.0833,0.2345 -0.18505,0.43656 -0.21707,0.43097 -0.22889,0.5668 -0.0637,0.73198 0.34717,0.34716 1.79912,0.10168 3.0798,-0.52071 0.53605,-0.2605 0.97387,-0.60029 0.79375,-0.61601 -0.22594,-0.0197 -2.20637,-0.0822 -2.89718,-0.0913 -0.56876,-0.008 -0.72761,0.005 -0.72761,0.0595 z m 4.25864,0.32654 c -0.15944,0.15944 -0.28989,0.29949 -0.28989,0.31122 0,0.0117 0.11007,0.049 0.24461,0.0829 0.28159,0.0709 0.68792,0.26752 1.01199,0.48968 l 0.22473,0.15406 0.9659,-0.56253 c 0.53124,-0.3094 0.98852,-0.58433 1.01617,-0.61097 0.0308,-0.0296 -0.0308,-0.0511 -0.15875,-0.0553 -0.23396,-0.008 -2.0809,-0.0745 -2.47236,-0.0893 -0.24023,-0.009 -0.26661,0.004 -0.5424,0.28029 z m -1.79214,1.13679 c -0.91598,0.2983 -1.3904,0.42541 -1.58778,0.42541 -0.19998,0 -0.17023,0.0723 0.10287,0.24992 l 0.24076,0.15661 1.73957,-0.34879 c 0.95676,-0.19183 1.75548,-0.36486 1.77493,-0.38451 0.0491,-0.0496 -0.35896,-0.31177 -0.5689,-0.36547 -0.33764,-0.0864 -0.87627,-0.002 -1.70145,0.26683 z m -6.51462,0.006 c -0.30513,0.0837 -0.82021,0.31957 -0.82021,0.37563 0,0.2092 0.58723,0.66516 1.08479,0.84229 0.62973,0.22418 1.94858,0.19896 3.36021,-0.0643 0.73763,-0.13754 0.74871,-0.14239 0.55667,-0.24391 -0.71946,-0.38033 -2.09551,-0.86248 -2.75271,-0.96452 -0.37047,-0.0575 -1.12473,-0.0286 -1.42875,0.0548 z m -5.4638,1.83158 c -0.0931,0.63131 -0.16091,1.15616 -0.15073,1.16634 0.0321,0.0321 1.85352,-0.35761 1.90311,-0.4072 0.026,-0.026 0.0582,-0.20973 0.0716,-0.40827 0.0207,-0.30874 0.006,-0.39531 -0.10319,-0.59821 -0.16632,-0.30958 -0.52203,-0.56013 -1.06216,-0.74815 -0.23845,-0.083 -0.44609,-0.15123 -0.46143,-0.15162 -0.0154,-3.7e-4 -0.10406,0.51581 -0.19715,1.14711 z m 2.37607,-0.87806 c -0.2292,0.0799 -0.21778,0.23464 0.045,0.60979 0.22069,0.31505 0.2689,0.55504 0.15446,0.76888 -0.0315,0.0588 -0.0493,0.11461 -0.0397,0.12404 0.0217,0.0213 2.65412,-0.50397 2.68749,-0.53623 0.0133,-0.0128 -0.0204,-0.10611 -0.0749,-0.20728 -0.11706,-0.21736 -0.46404,-0.46016 -0.83251,-0.58255 -0.62066,-0.20615 -1.59953,-0.29529 -1.93985,-0.17665 z"
       id="path3742" />
    <g
       id="g1227"
       transform="rotate(180,50.693608,33.95869)">
      <path
         d="m 6.2847776,2.5456667 -0.1407775,0.036258 -0.07273,0.018732 -0.095382,0.024566 L 5.516778,2.758111 5.2575607,2.8324544 5.1199999,2.8724868 5.063621,2.8888938 5.0405698,2.8959486 4.8693032,2.9483635 4.6753635,3.0093484 4.4744534,3.072 4.0960002,3.1900163 4.0299244,3.2106211 3.6424243,3.3356211 3.2545455,3.4632728 3.072,3.5229993 2.0480001,3.8580391 1.5362728,4.0254698 1.3206935,4.0960002 1.1472576,4.1527424 1.024,4.192039 0.39124241,4.3937726 0,4.5190158 -4.2424243e-4,4.5191517 -0.03856826,4.5308037 -0.39474243,4.639606 l -0.57213634,0.1751819 -0.0315619,0.00923 -0.0255593,0.00748 -0.1409848,0.041245 -0.477091,0.1385302 -0.1992423,0.05606 -0.1907611,0.052667 -0.015921,0.0044 -0.079076,0.021832 -0.2454798,0.065884 -0.4066667,0.1053333 -0.2927778,0.074307 -0.024621,0.00625 -0.2018938,0.047727 -0.3758335,0.088833 -0.2030301,0.044697 -0.2186215,0.047082 -0.1534848,0.033054 -0.1022725,0.020834 -0.1845002,0.036652 -0.2053028,0.038636 -0.3784394,0.065797 -0.1682272,0.029249 -0.1034093,0.017803 -0.1034093,0.016288 -0.2075753,0.029167 -0.1795306,0.026712 -0.1153073,0.014716 -0.1465412,0.018702 -0.093485,0.011931 -0.2090907,0.023106 -0.1751819,0.018015 -0.1045456,0.00947 -0.2602878,0.021743 -0.1814093,0.011746 -0.029197,0.00189 -0.1861362,0.0096 -0.2155557,0.012889 -0.087933,0.00276 -0.1814003,0.00569 -0.3158083,0.00836 -0.00797,1.173e-4 -0.2026205,0.00299 -0.2482052,3.953e-4 -0.5407533,6.375e-4 -0.03242,5.67e-5 -0.1645002,2.89e-4 -0.00836,-1.035e-4 -0.144288,-0.00179 -0.5305147,-0.00683 -0.176334,-0.00372 -0.128591,-0.00272 -0.536106,-0.013667 -0.304546,-0.00871 -0.05476,-0.00191 -0.249409,-0.0087 -0.774591,-0.029949 -1.024,-0.039591 -0.209788,-0.00811 -0.303788,-0.011742 -5.03e-4,-2.29e-5 -0.302905,-0.013614 -0.207016,-0.00995 -0.399803,-0.019217 -0.604439,-0.029197 -0.01976,-0.00106 -0.586303,-0.031514 -0.437698,-0.025441 -0.168363,-0.00979 -0.855637,-0.048002 -1.023998,-0.057447 -0.589684,-0.033082 -0.434316,-0.027026 -0.777047,-0.048353 -0.246954,-0.015599 -1.024,-0.06468 -0.656667,-0.041478 -0.367333,-0.024121 -0.238348,-0.015651 -0.606062,-0.040909 -0.17959,-0.012139 -1.024,-0.069216 -1.024,-0.069216 -0.364106,-0.024611 -0.605302,-0.041666 -0.05459,-0.00388 -1.024,-0.072708 -0.11959,-0.00849 -0.0128,-9.089e-4 -0.891607,-0.063528 -1.023998,-0.072961 -1.024,-0.072961 -0.05961,-0.00425 -0.964393,-0.070308 -0.246212,-0.01795 -0.777791,-0.057927 -1.023998,-0.076264 -1.024002,-0.076264 -1.023998,-0.076264 -0.03714,-0.00277 -0.986862,-0.073535 -0.222989,-0.016616 -0.801013,-0.06096 -0.408455,-0.031085 -0.615544,-0.047424 -0.593925,-0.045758 -1.454075,-0.1119585 -0.575535,-0.044314 -0.448467,-0.034531 -1.023998,-0.078844 -1.024002,-0.078844 -0.03238,-0.00249 -0.991619,-0.077305 -0.218227,-0.017013 -0.805775,-0.063574 -0.404075,-0.031881 -0.619923,-0.049007 -1.023998,-0.08095 -1.024002,-0.08095 -1.023999,-0.08095 -0.661533,-0.052296 -0.362469,-0.028825 -0.847378,-0.067387 -0.17662,-0.014223 -1.024002,-0.082463 L -54.520393,3.072 -55.296001,3.0095403 -56.22068,2.9350758 -56.32,2.9270675 -57.344002,2.8444998 -58.368,2.7619321 -58.639999,2.74 l -0.02007,-0.00348 -0.02719,-0.00471 -0.005,-8.602e-4 -0.0032,-5.762e-4 -0.01141,-0.00208 -0.09002,-0.015851 -0.142674,-0.02522 -0.08596,-0.015333 -0.366535,-0.06476 -1.024002,-0.1809199 -0.759831,-0.1342464 -0.07943,-0.014073 -0.02899,-0.00508 -0.03394,-0.00595 -0.121807,-0.02152 -0.06284,-0.011102 -0.233158,-0.041231 8e-6,-8.1e-6 1.94e-4,-2.339e-4 0.295799,-0.352647 0.037,-0.044111 0.191666,-0.2158333 0.04134,-0.046077 0.01533,-0.017089 0.237084,-0.2483334 0.100917,-0.1055833 0.07723,-0.074404 0.06714,-0.06468 0.06271,-0.0604167 0.196251,-0.17625004 0.03034,-0.0266666 0.0087,-0.007039 0.02227,-0.0179606 0.165417,-0.13625002 0.05875,-0.045 0.0047,-0.003337 0.178612,-0.126246 0.01567,-0.0118333 0.016,-0.0113333 0.01292,-0.008352 0.01958,-0.0126484 0.07537,-0.0472664 0.02017,-0.012651 0.0028,-0.001749 0.025,-0.0141667 0.146252,-0.0825 0.02423,-0.0118809 0.09593,-0.0470357 0.09858,-0.0443625 0.0097,-0.004388 0.09013,-0.03650781 0.002,-8.2552e-4 0.14875,-0.05083333 0.018,-0.0061667 0.02767,-0.0078333 0.05254,-0.0125 0.171631,-0.04083333 0.02409,-0.0051028 0.0042,-8.9715e-4 0.01933,-0.0028333 L -58.708,-0.068 l 1.363998,-0.17426183 2.601834,-0.33240485 5.590168,-0.71379462 0.622917,-0.079539 1.425083,-0.1796254 1.464085,-0.1845412 0.583915,-0.073523 1.924427,-0.2423108 0.845822,-0.1064999 1.325752,-0.1649313 2.111248,-0.2626519 1.984753,-0.2462464 0.980663,-0.1216704 2.932419,-0.3587499 0.182914,-0.022308 1.836253,-0.2239423 2.516498,-0.3015833 2.286667,-0.27125 1.552584,-0.180664 0.903311,-0.1051126 0.271188,-0.031557 0.896,-0.1015 1.940834,-0.2212501 1.791416,-0.1965833 1.235417,-0.1337499 1.153833,-0.1207566 0.06125,-0.00641 1.239167,-0.1266665 1.199333,-0.1178336 0.97,-0.089167 0.965748,-0.086291 0.294252,-0.026292 0.420584,-0.033834 0.266583,-0.020417 0.41125,-0.03375 0.376833,-0.02625 0.119,-0.00758 0.6907945,-0.046283 0.142539,-0.00955 0.271061,-0.014545 0.3268557,-0.017539 0.3768329,-0.01225 0.059916,-0.00289 0.2338338,-0.011277 0.1308331,-0.00417 h 0.042083 l 0.057006,0.00219 0.033994,0.00131 0.087083,0.00542 0.0875,0.00875 0.186111,0.034444 0.013123,0.00195 0.019766,0.00294 0.032,0.00578 0.012315,0.0029 0.049908,0.011764 0.038444,0.01196 0.021556,0.00671 0.1197281,0.039174 8.273e-4,2.709e-4 0.043556,0.016889 0.070222,0.031999 0.052778,0.022639 0.026945,0.012818 0.015972,0.0076 0.0525,0.02975 0.04125,0.0225 0.069445,0.044583 0.039151,0.026101 0.050182,0.033455 0.098889,0.076111 0.0526,0.045653 0.01155,0.010024 0.030073,0.026101 0.068611,0.063472 0.024616,0.025611 0.033133,0.034473 0.030417,0.03125 0.027917,0.031666 0.026667,0.0325 0.015417,0.018936 0.010026,0.012314 0.053618,0.065857 0.028272,0.034726 0.025,0.0325 0.058195,0.083472 0.032889,0.049333 0.041778,0.062667 0.088334,0.1494441 0.024973,0.045182 0.042582,0.07704 0.00886,0.018227 0.022251,0.045773 0.052836,0.1036014 0.00449,0.00869 0.00823,0.015907 0.011513,0.026699 0.018904,0.040801 0.039083,0.0875 0.00874,0.020824 0.019592,0.046675 0.00351,0.00908 0.042327,0.1096668 0.038199,0.096584 0.016468,0.041638 0.00454,0.013265 0.044789,0.1307352 0.036667,0.1044445 0.014719,0.044185 0.012353,0.039024 0.016261,0.051374 0.038333,0.1309722 0.044444,0.1484446 0.029469,0.1136666 0.029642,0.1143334 0.052111,0.2009527 0.010248,0.039519 0.00334,0.012861 0.00824,0.036257 0.022589,0.095826 0.1124464,0.5242498 0.01012,0.047184 0.096767,0.45115 0.034859,0.1618635 0.00372,0.017982 0.043508,0.2105713 0.028743,0.13525 0.025007,0.11766667 0.061833,0.26016665 0.044167,0.18208334 0.056583,0.19891667 0.028097,0.0979879 0.00524,0.0182622 L -4.4721622,0 l 0.00961,0.02733333 0.038222,0.11066667 0.0013,0.003087 0.040925,0.0973578 0.062222,0.13888889 0.016607,0.0310611 0.022661,0.0423841 0.00873,0.0163326 0.046389,0.0809722 0.0062,0.009246 0.020887,0.0311703 0.034417,0.0536667 0.012956,0.0170276 0.00163,0.002139 0.052083,0.0627778 0.00133,0.001828 0.026222,0.0359498 0.026095,0.0287619 0.034794,0.0383492 0.02188,0.0218803 0.020342,0.0203419 0.069333,0.0555556 0.071087,0.0545843 0.022247,0.0170823 0.037778,0.0231111 0.00452,0.00244 0.011922,0.00644 0.041487,0.022425 0.024291,0.01313 0.082667,0.038667 0.087604,0.034331 0.0049,0.00192 0.048441,0.015827 0.010476,0.00342 0.062417,0.016333 0.065917,0.01225 0.046667,0.012083 0.092917,0.015278 0.082438,0.00848 0.025562,0.00263 0.002,1.993e-4 0.038417,0.00383 0.1070833,0.00542 0.076417,0.00175 0.096528,-0.00208 0.1244444,-0.004 0.1477778,-0.011667 0.04278,-0.0045 0.092331,-0.00972 0.071556,-0.010222 0.1474998,-0.018889 0.062069,-0.010263 0.012812,-0.00212 0.00429,-7.815e-4 0.1738097,-0.031695 0.065774,-0.012143 0.1216666,-0.025833 0.2976667,-0.0705 0.079167,-0.01875 0.2433333,-0.06125 0.042583,-0.011826 0.0814445,-0.0226184 0.26844442,-0.0773333 L -0.25411111,0.70222223 0,0.62136871 0.02944444,0.61199999 0.22722222,0.54444444 0.52833331,0.4425 0.58846962,0.42105207 0.77249998,0.35541666 1.024,0.26489624 1.0723333,0.2475 1.3160833,0.15666667 1.7312292,0 1.8988333,-0.06325 2.0480001,-0.12081861 2.1417501,-0.15700001 2.4205832,-0.26725 2.9043334,-0.46183333 3.072,-0.53203285 l 0.1935833,-0.0810505 0.8304169,-0.33961016 0.00258,-0.001056 0.1642041,-0.07025 0.5025459,-0.215 0.3546667,-0.1519415 0.00617,-0.00264 0.2391668,-0.105 0.5990829,-0.2654168 0.1795836,-0.080233 0.059166,-0.026434 0.156425,-0.071477 0.080658,-0.036856 0.1478133,-0.069 0.05302,-0.02475 0.526917,-0.244478 0.032,-0.014848 0.3236671,-0.1501744 0.1991663,-0.095833 0.15875,-0.079583 0.1665278,-0.084445 0.027009,-0.013746 0.01682,-0.00856 0.03506,-0.038583 0.065001,-0.059065 0.026,-0.023626 0.139,-0.1263087 0.25,-0.1849999 0.2659997,-0.1589999 0.2810002,-0.1330002 0.2919998,-0.105 0.302,-0.075 0.3069996,-0.046 0.31,-0.015 0.31,0.015 0.307,0.046 0.302,0.075 0.292,0.105 0.281,0.1330002 0.266,0.1589999 0.08705,0.064414 0.07795,0.018663 0.04149,0.00993 0.108862,0.026063 0.02475,0.00593 0.04873,0.011667 0.05141,0.011682 0.08209,0.018652 0.05549,0.011306 0.152492,0.031071 0.176186,0.035899 0.179821,0.03664 0.01268,0.00258 0.09,0.017611 0.02583,0.00505 0.08036,0.014141 0.111808,0.019674 0.196167,0.034518 0.06886,0.011206 0.009,0.00146 0.05883,0.00867 0.03933,0.005 0.433834,0.061253 0.351166,0.049581 0.09933,0.010833 0.3975,0.0425 0.1,0.00817 0.04033,0.0025 0.8025,0.058333 0.257168,0.00949 0.271499,0.010014 0.615834,0.005 0.102667,5e-4 0.310833,-0.00583 0.103666,-0.0025 0.527172,-0.023719 0.04699,-0.00211 0.002,-1.053e-4 0.06729,-0.00348 0.0145,-7.496e-4 0.04217,-0.00283 0.117942,-0.0088 0.462891,-0.034534 0.08483,-0.00733 0.477501,-0.05 0.099,-0.010833 0.05,-0.0065 0.499167,-0.065 0.199999,-0.030022 0.177499,-0.026645 0.125668,-0.019166 0.761667,-0.1366668 0.152832,-0.028333 0.102835,-0.022 0.727499,-0.1573336 0.174168,-0.037667 0.181999,-0.044333 0.520834,-0.1283333 0.7225,-0.1958334 0.07883,-0.021167 0.01292,-0.0037 0.09291,-0.026631 0.263834,-0.076872 0.158877,-0.046292 0.04062,-0.011836 0.265835,-0.080833 0.16,-0.049667 0.400833,-0.1274998 0.193598,-0.063834 0.344734,-0.1136665 0.161501,-0.054 0.609167,-0.2133336 0.108666,-0.038666 0.750833,-0.2766666 0.08184,-0.030334 0.123665,-0.047667 0.549167,-0.2133336 0.146668,-0.058608 0.268331,-0.1072254 0.152169,-0.061334 0.2775,-0.1141667 0.0023,0.00138 0.0015,8.955e-4 0.277,0.1643925 0.112,0.0655 0.555833,0.3158335 0.117001,0.063666 0.284332,0.1516027 0.09233,0.049231 0.304998,0.1550002 0.088,0.045 0.01174,0.00569 0.122421,0.059309 0.07967,0.0365 0.264999,0.1225 0.03855,0.016572 0.176603,0.075928 0.04652,0.02 0.07783,0.032 0.2575,0.099167 0.088,0.029167 0.189999,0.065 0.07645,0.023313 0.109379,0.033354 0.023,0.00595 0.0015,3.879e-4 0.243332,0.059167 0.07133,0.013333 0.119168,0.021667 0.174164,0.0225 0.03434,0.00283 0.170833,0.011667 0.151177,-0.00114 0.004,-3.01e-5 0.03217,-0.00333 0.022,-0.00205 0.193001,-0.017953 0.246997,-0.055 -0.0026,-0.073242 -5.04e-4,-0.014442 -3.77e-4,-0.010763 -1.41e-4,-0.00399 -0.009,-0.2575626 -0.0104,-0.2969999 0.607002,-0.021263 0.591999,-0.020737 0.01187,0.3389997 0.01113,0.3180001 0.035,0.065 0.055,0.078 0.01958,0.02125 0.03733,0.0385 0.04375,0.035417 0.01917,0.012833 0.03,0.02 0.0325,0.018333 0.03416,0.016667 0.035,0.014167 0.02182,0.00899 1.9e-5,7.4e-6 5e-5,1.55e-5 0.0018,5.822e-4 0.03479,0.011069 0.009,0.00211 0.06933,0.016227 0.04167,0.00583 0.03383,0.006 0.01116,2.99e-4 0.0075,2.01e-4 0.09625,0.00542 0.07083,0.00125 0.02838,-0.00143 0.04104,-0.00207 0.145832,-0.016667 0.02961,-0.00433 0.01255,-0.00184 0.156666,-0.030833 0.0035,-8.228e-4 0.02431,-0.00568 0.227501,-0.064167 0.024,-0.00751 0.01418,-0.00444 0.0082,-0.00255 0.278332,-0.105 0.02838,-0.011035 0.01913,-0.00744 4.96e-4,-1.926e-4 0.02433,-0.011 0.2625,-0.1183333 0.0225,-0.011326 0.02617,-0.013174 0.189167,-0.1008334 0.004,-0.0023 0.0019,-0.00109 0.0022,-0.00126 0.02808,-0.016176 0.114501,-0.069565 0.140072,-0.085102 0.03209,-0.0195 0.02224,-0.014031 0.01336,-0.00843 6.1e-5,-3.81e-5 1.33e-4,-9.63e-5 0.0015,-0.0011 0.04433,-0.031801 0.225415,-0.1587501 0.0098,-0.00759 0.07439,-0.057822 0.18375,-0.1549997 0.04367,-0.036 0.124168,-0.1166663 0.06033,-0.059833 0.04866,-0.050737 0.108001,-0.112596 0.110001,-0.1291666 0.036,-0.043833 0.01634,-0.021 0.02592,-0.033325 0.02775,-0.035675 0.217583,-0.2864166 0.03653,-0.054583 0.07,-0.090555 0.02791,-0.033242 0.01127,-0.01342 0.02936,-0.034965 0.0056,-0.00671 0.128056,-0.143889 0.112446,-0.1266665 0.06122,-0.062607 0.037,-0.037837 0.06343,-0.064111 0.03963,-0.040055 0.07996,-0.076123 0.01253,-0.011933 0.08889,-0.079444 0.188443,-0.1697779 0.123332,-0.1022225 0.205781,-0.1582222 0.184997,-0.1396722 0.01,-0.00755 0.06861,-0.046667 0.246998,-0.1653891 0.04316,-0.026945 0.05517,-0.034444 0.210888,-0.1292777 0.08417,-0.0475 0.195,-0.1097774 0.11,-0.057168 0.168999,-0.087832 0.289001,-0.138 0.215222,-0.094611 0.114723,-0.049445 0.236053,-0.092783 0.012,-0.00472 0.27689,-0.1075554 0.144886,-0.049334 0.06192,-0.021556 0.151135,-0.05261 0.06473,-0.02042 0.131653,-0.041525 0.185776,-0.057333 0.05422,-0.014885 0.257446,-0.070671 0.19289,-0.052 0.19822,-0.047999 0.297779,-0.071667 0.01844,-0.00372 0.213222,-0.042952 0.415112,-0.080889 0.263611,-0.0475 0.108612,-0.016389 0.02345,-0.00352 0.400497,-0.06004 0.1675,-0.021111 0.308754,-0.037981 0.05525,-0.0068 0.092,-0.00927 0.194668,-0.019618 0.183109,-0.019111 0.329777,-0.025333 0.316444,-0.022876 0.0828,-0.00598 0.01576,-0.00114 0.341778,-0.016445 0.219703,-0.010805 0.05831,-0.00287 0.02699,-0.00133 0.171112,-0.00267 0.107555,-0.00217 0.168,-0.00339 0.281665,0.00333 0.180001,0.00178 0.01177,4.921e-4 0.201008,0.0084 0.181553,0.00764 0.0087,3.671e-4 0.05976,0.00252 0.04551,0.00192 0.174667,0.014222 0.318333,0.023334 0.248173,0.026934 0.168827,0.018322 0.0918,0.00996 0.0072,7.801e-4 0.222778,0.031667 0.0086,0.00136 0.383,0.060863 0.232223,0.04 0.07844,0.015265 0.02433,0.00473 0.265778,0.055612 0.10139,0.023055 0.262165,0.061389 0.1325,0.034445 0.237835,0.067579 0.04077,0.011587 0.158669,0.042222 0.147232,0.044549 0.04685,0.014176 0.01303,0.00394 0.01988,0.00677 0.182342,0.062117 0.269444,0.089445 0.09389,0.03361 0.16869,0.068611 0.01298,0.00528 0.319222,0.122777 0.192249,0.085252 0.02386,0.010581 0.190666,0.082222 0.06915,0.032993 0.09907,0.047267 0.01622,0.00774 0.165557,0.08 0.178219,0.094222 0.248635,0.1335121 0.02554,0.01371 0.195278,0.1155552 0.170517,0.099825 0.04282,0.025063 0.104672,0.068 0.0171,0.011111 0.218887,0.142778 0.192112,0.1328888 0.02222,0.016326 0.07306,0.053674 0.124222,0.091 0.179111,0.140111 0.07383,0.060645 0.108108,0.0888 0.14,0.1186666 0.0066,0.0059 0.09172,0.081873 0.08604,0.080222 0.02588,0.024131 0.01964,0.018313 0.0695,0.066317 0.02773,0.026461 0.122219,0.1262221 0.180176,0.1867452 0.0026,0.0027 0.0012,0.00137 0.03015,0.03388 0.05485,0.061634 0.05756,0.066345 0.05522,0.063655 0.105777,0.132 0.154446,0.1994448 0.0105,0.014778 0.0855,0.1203332 0.07055,0.1016669 0.08667,0.1372218 0.104889,0.1724449 0.05945,0.104444 0.056,0.1048889 0.055,0.105 0.06556,0.1416669 0.015,0.036333 0.09945,0.2409248 0.0033,0.00808 0.08055,0.2120619 0.0011,0.00294 0.04389,0.145 0.0018,0.00646 0.04929,0.1748693 0.02667,0.1088889 0.01784,0.086406 0.0048,0.023372 0.003,0.015 0.01872,0.095 0.02,0.1471112 0.01667,0.1105554 0.0026,0.03135 0.01072,0.1279834 5.42e-4,0.0065 0.0028,0.018611 0.0089,0.148 0.0028,0.073889 -0.02074,7.961e-4 -0.02164,8.309e-4 -0.124016,0.00476 -0.0013,4.53e-5 -0.03251,0.00112 -0.01696,7.82e-4 -0.0099,4.547e-4 -0.02802,0.00105 -0.01922,7.622e-4 -0.0175,6.077e-4 -0.0022,7.68e-5 -0.02097,7.284e-4 -0.001,4.07e-5 -0.04189,0.00164 -0.02242,8.078e-4 -0.04655,0.00188 -0.02417,7.088e-4 -0.04856,0.00208 -0.699417,0.026833 0.0021,0.035 0.0029,0.1361112 0.002,0.047889 0.0013,0.030981 2.71e-4,0.00646 -0.001,0.032905 -0.0029,0.09255 -5.49e-4,0.017657 -0.0036,0.076528 -0.0013,0.037917 -0.0045,0.0325 -0.0034,0.027945 -0.0032,0.026221 -0.0062,0.057333 -0.003,0.017739 -0.01159,0.068135 -5.8e-5,3.48e-4 -0.03333,0.1733334 -0.01911,0.087111 -0.03167,0.1161111 -0.0047,0.01523 -0.01929,0.062473 -0.01375,0.044519 -0.0071,0.023111 -0.02861,0.0863889 -0.05861,0.14694447 -0.02199,0.056255 -0.01223,0.0313005 -0.04044,0.0875556 -0.08611,0.17611107 -0.04489,0.088 -0.01891,0.031354 -0.06954,0.11531273 -0.04319,0.0733333 -0.03792,0.065 -0.0048,0.0075501 L 57.857021,0 l -0.01454,0.0227994 -0.01948,0.03053393 -0.04702,0.06819673 -0.03388,0.0491366 -0.07413,0.10568357 -0.0081,0.0115387 -0.09022,0.11644444 -0.03689,0.0467108 -0.100887,0.12773371 -0.08789,0.10247135 -0.01122,0.0130842 -0.07736,0.09 -0.05208,0.0575 -0.141751,0.14991665 -0.0349,0.03225 -0.28069,0.2594166 -0.166664,0.16625 -0.05792,0.052917 -0.06,0.052083 -0.07042,0.058333 -0.01403,0.011476 -0.05697,0.046615 -0.061,0.049909 -0.09375,0.075833 -0.216248,0.1608333 -0.121166,0.090333 -0.02986,0.022263 -0.02364,0.017626 -0.06971,0.04731 -0.04096,0.027801 -0.130833,0.09 -0.134582,0.086667 -0.10225,0.065285 -0.09783,0.062465 -0.137081,0.08125 -0.08793,0.051333 -0.120903,0.070583 -0.07,0.039167 -0.215831,0.1149168 -0.105835,0.05625 -0.163471,0.080972 -0.02511,0.012261 -0.145111,0.070851 -0.05861,0.027 -0.09658,0.044496 -3.7e-4,1.705e-4 -0.175557,0.076889 -0.199443,0.083889 -0.11987,0.047356 -0.06013,0.023755 -0.0052,0.00202 -0.116463,0.044915 -0.04108,0.015842 -0.0056,0.00194 -0.07384,0.025801 -0.105045,0.036702 -0.03775,0.013557 -0.125138,0.044936 -0.05612,0.018028 -0.02293,0.00737 -0.277501,0.082778 -0.188888,0.057333 -0.13678,0.037149 -0.0072,0.00196 -0.290554,0.071667 -0.146668,0.034222 -0.148002,0.030222 -0.248886,0.049583 -0.182667,0.030805 -0.0145,0.00245 -0.07875,0.012917 -0.158748,0.0225 -0.189446,0.022639 -0.203113,0.027556 -0.131981,0.012489 -0.07468,0.00707 -0.172779,0.013964 -0.085,0.00687 -0.203938,0.012167 -0.0014,8.3e-5 -0.08042,0.00375 -0.138248,0.00467 -0.077,0.00241 -0.0029,8.97e-5 -1.26e-4,3.8e-6 0.0094,0.2311477 0.01914,0.4682689 0.0022,0.060922 0.0014,0.035233 9.5e-4,0.023119 0.0019,0.043918 0.0019,0.041921 4.81e-4,0.017731 6.1e-5,0.00217 1.6e-4,0.00291 9.04e-4,0.0166 0.0014,0.03691 0.0014,0.032151 1.26e-4,0.00292 5.68e-4,0.016694 0.0069,0.166389 -0.0013,4.25e-5 -0.265385,0.00885 -0.158668,0.00578 -0.03034,5.221e-4 -0.02833,4.878e-4 -0.25111,0.00432 -0.517223,0.00556 -0.07487,-0.00107 -0.180802,-0.00259 -0.241222,-0.00345 -0.131775,-0.00204 -0.119335,-0.00185 -0.180111,-0.00733 -0.14072,-0.00573 -0.210835,-0.012261 -0.03278,-0.00191 -0.214664,-0.011111 -0.09697,-0.00677 -0.07398,-0.00516 -0.03927,-0.00274 -0.309998,-0.027222 -0.09841,-0.010242 -0.02725,-0.00284 -0.01548,-0.00161 -0.115192,-0.011989 -0.05967,-0.00621 -0.300556,-0.034445 -0.05509,-0.00815 -0.290241,-0.042957 -0.01242,-0.00189 -0.306022,-0.046526 -0.036,-0.00547 -0.104167,-0.019166 -0.234166,-0.045834 -0.166668,-0.030666 -0.221778,-0.048445 -0.16,-0.036111 -0.10122,-0.025626 -0.07433,-0.018819 -0.104351,-0.027341 -0.150097,-0.039326 -0.204441,-0.06 -0.114223,-0.032 -0.05639,-0.017298 -0.05517,-0.016924 -0.193325,-0.066967 -0.02223,-0.0077 -0.04945,-0.016693 -0.167778,-0.056641 -0.09527,-0.034913 -0.0079,-0.00288 -0.0227,-0.00832 -0.22028,-0.089444 -0.114017,-0.045875 -0.07487,-0.030125 -0.148446,-0.066667 -0.0016,-7.115e-4 -0.130089,-0.058733 -0.128334,-0.062222 -0.01291,-0.00656 -0.107574,-0.054615 -0.05284,-0.02683 -0.245556,-0.1327777 -0.05206,-0.029893 -0.127503,-0.073218 -0.15583,-0.096389 -0.182503,-0.1178644 -0.0255,-0.016469 L 40.761444,3.4248888 40.653,3.348 40.649422,3.3452334 40.549,3.2675555 40.471222,3.2072778 40.310894,3.072 l -0.02634,-0.022222 -0.09543,-0.080453 -0.0011,-9.554e-4 -0.0025,-0.00215 -0.09422,-0.087111 -0.15522,-0.1504462 -0.02533,-0.024554 -0.06108,-0.061685 -0.02826,-0.028537 -0.01281,-0.013889 -0.09941,-0.1077776 -0.08444,-0.093333 -0.0025,-0.00298 -0.0771,-0.093468 -0.114617,-0.1391368 -0.0087,-0.010586 -0.07486,-0.1013887 -0.0025,-0.00333 L 39.224998,1.888 l -0.1175,-0.1366666 -0.0224,-0.025497 -0.01143,-0.013003 -0.161667,-0.1632517 -0.0083,-0.00841 -0.02342,-0.022277 -0.01425,-0.013557 -0.141086,-0.1208383 -0.04475,-0.038328 -0.01982,-0.016014 -0.0081,-0.00658 -0.0026,-0.00211 -0.01026,-0.00829 -0.114998,-0.088333 -0.02766,-0.019074 L 38.372082,1.1198334 38.290001,1.064 38.224194,1.024 38.205002,1.0123333 38.04575,0.91724998 37.888,0.8342061 37.84867,0.8135 37.82771,0.8027607 l -0.007,-0.003595 -0.01374,-0.007043 -0.0051,-0.002623 -0.255833,-0.11416668 -0.02383,-0.0106667 -0.02646,-0.0105265 -6.75e-4,-2.6744e-4 -0.0202,-0.008039 -0.254169,-0.0958333 -0.0097,-0.003056 -0.03344,-0.0105111 -0.0035,-0.0011 -0.02284,-0.005833 -0.287167,-0.0756084 -0.042,-0.0110582 -0.02216,-0.0045 -0.0032,-4.8181e-4 -0.0236,-0.003518 -0.162083,-0.0266667 -0.03843,-0.003223 -0.02616,-0.002194 -0.07233,-0.005833 -0.06942,-0.001167 -0.0157,-8.92e-5 -0.05763,-3.2746e-4 -0.125416,0.0116667 -0.01883,0.001167 -0.02583,0.004833 -0.135002,0.0341667 -0.01983,0.0065 -0.0066,0.003021 -6.86e-4,3.125e-4 -0.075,0.0325 -0.01046,0.006348 -0.02512,0.0152353 -0.04125,0.0266666 -0.0072,0.005617 -0.03116,0.0244238 -0.0048,0.003792 -0.04333,0.0395834 -0.0072,0.007204 -0.0011,0.00113 -0.06917,0.0916666 -0.0074,0.009918 -0.0023,0.003082 -8.58e-4,0.001529 -0.0032,0.005783 -0.0021,0.003688 -0.02333,0.0433334 -0.05,0.125 0.0042,0.12099999 0.01877,0.537 -0.800999,0.028058 -0.397778,0.013934 -2.25e-4,7.8e-6 -0.02021,-0.579 -5e-5,-0.00138 -2.21e-4,-0.00639 -9.27e-4,-0.0265276 -1.72e-4,-0.004875 -0.0014,-0.0408305 -0.06123,-0.0134308 -0.09377,-0.0205692 -0.02117,-0.002833 -0.146668,-0.0166667 -0.03783,-0.0015 -0.242332,0.001558 -0.01683,1.0824e-4 -0.04467,0.003667 -0.0064,8.1468e-4 -0.162807,0.020852 -0.03433,0.0065 -0.230835,0.0516667 -0.035,0.009 L 33.130409,1.024 33.023666,1.0573334 32.987999,1.069 l -0.180832,0.069167 -0.03916,0.015532 -0.0092,0.00364 -0.245003,0.11 -0.0493,0.022828 L 32.152,1.451 32.102,1.477 31.797999,1.649 31.743999,1.681786 31.49,1.836 l -0.259167,0.1658334 -0.07124,0.046167 -2.56e-4,1.667e-4 -0.184776,0.1250321 -0.176058,0.1191345 -0.296667,0.2091665 -0.111834,0.077667 -0.02844,0.020833 -0.304892,0.2233334 -0.120334,0.089333 -0.268334,0.2033333 -0.0038,-0.00128 -0.0036,-0.00122 -0.02693,-0.00903 -0.0236,-0.00791 -0.04515,-0.015138 -0.466023,-0.156251 -0.1985,-0.065167 -0.228332,-0.07308 -0.336668,-0.1077532 -0.254088,-0.079167 -0.02674,-0.00833 L 27.914,2.5481668 27.0765,2.3015001 26.882,2.2460001 26.340786,2.0974317 26.3295,2.0943334 26.219667,2.0655 26.153288,2.0480001 25.944666,1.993 25.398001,1.8555 25.294361,1.8303403 25.248333,1.8191667 24.977501,1.755 24.576,1.6651582 24.4375,1.6341667 24.236,1.591 23.567667,1.4551667 l -0.132334,-0.024 -0.397499,-0.073333 -0.07633,-0.0126 -0.433508,-0.071563 -0.01517,-0.0025 -0.130999,-0.021 -0.383863,-0.056474 -0.007,-0.00103 -0.129165,-0.016833 -0.387501,-0.050833 -0.256666,-0.029167 -0.102333,-0.0105 -0.49927,-0.048948 -0.01073,-0.00105 -0.101,-0.00817 -0.02433,-0.00201 -0.228167,-0.018826 -0.376667,-0.0233334 -0.07517,-0.004333 -0.374166,-0.0175 -0.04983,-0.002167 -0.085,-0.002 -0.53,-0.01 -0.105,3.3331e-4 h -0.224001 -0.09183 l -0.03738,0.001121 -0.04596,0.001379 -0.726667,0.0233333 -0.102833,0.0055 -0.01933,0.001499 -0.0215,0.001667 -0.557853,0.0421667 -0.257979,0.0195 -0.081,0.0075 -0.105665,0.011814 -0.296835,0.033186 -0.04016,0.0045 -0.07983,0.010167 -0.398334,0.053333 -0.07917,0.012167 -0.59,0.0975 -0.03917,0.00667 L 14.7825,1.295 14.336,1.3830243 14.199166,1.41 14.160336,1.41783 14.083336,1.434997 13.6525,1.535 13.576333,1.5538334 13.53,1.5658046 13.312,1.62213 13.053833,1.6888334 12.9595,1.7146667 12.358476,1.8927479 12.288,1.9449 12.123,2.0669999 11.857,2.2260001 11.576,2.359 11.284,2.464 10.982,2.539 10.675,2.585 10.365,2.6 10.055,2.585 9.7480001,2.539 9.4460001,2.464 9.1540003,2.359 8.8730001,2.2260001 l -0.082381,-0.049243 -0.021614,-0.012919 -0.017126,-0.0016 -0.0163,-9.42e-5 -0.070731,-4.086e-4 -0.070291,-4.063e-4 -0.034415,-4.713e-4 -0.062919,-8.619e-4 -0.013257,6.943e-4 -0.1649647,0.00864 -0.1016664,0.00556 -0.025333,0.00273 -0.024805,0.00267 -0.1679721,0.0181 -0.039668,0.00427 -0.1456947,0.018761 -0.013659,0.00176 -0.026571,0.00342 -0.034965,0.0045 -0.086666,0.014667 -0.060854,0.00959 -0.082088,0.012937 -0.042286,0.00666 -0.2667728,0.054067 -0.011333,0.0023 -0.020667,0.00407 L 7.0531111,2.358 7.0093369,2.3677728 6.862,2.4006667 l -0.1573157,0.036851 -0.082003,0.019209 -0.118092,0.031083 -0.219812,0.057856 m -15.9571943,-7.1198335 -1.970833,0.1525002 -1.713651,0.1420331 -0.123265,0.010217 -0.610751,0.053083 -0.610166,0.054833 -1.682918,0.147903 -0.170831,0.015014 -1.216835,0.11375 -1.891667,0.1837499 -0.908249,0.088083 -0.04388,0.0044 -1.461705,0.1466799 -1.333332,0.1387501 -1.1655,0.1235442 -0.914667,0.096956 -1.72375,0.1895833 -1.747083,0.1936667 -2.02475,0.2315833 -1.781752,0.2043713 -0.0745,0.00855 -1.367916,0.1612498 -2.653583,0.3144284 -1.570336,0.1860717 -0.477665,0.057012 -0.814003,0.097155 -0.158333,0.1683333 -0.02438,0.026161 -0.01621,0.017387 -0.0029,0.00312 -0.01983,0.023333 -0.169071,0.1966666 -0.01218,0.014167 -0.09391,0.12249997 -0.01553,0.0206785 -0.04988,0.0664049 -0.109585,0.16291666 -0.02264,0.0326339 -0.0015,0.002199 -0.01416,0.0231667 -0.06084,0.0983333 -0.07791,0.15958333 -0.01458,0.0145833 -0.02117,0.0406667 -0.04916,0.10916665 -0.02517,0.06933334 L -40.718719,0 l -0.0079,0.02066667 -0.01465,0.04682293 -0.02368,0.07567706 -0.045,0.20333335 -0.0042,0.0173333 -4.96e-4,0.003729 -0.01034,0.0779377 -0.0057,0.0403334 -2.78e-4,0.004478 -0.0064,0.1030218 -3.58e-4,0.009877 -4.73e-4,0.0131231 0.0034,0.13216668 7.78e-4,0.0303333 8.32e-4,0.023 5.15e-4,0.005361 2.63e-4,0.002699 8.89e-4,0.009273 0.02,0.16166669 8.43e-4,0.005207 9.92e-4,0.006126 0.0074,0.0318334 0.0013,0.0055 0.03,0.135 0.0085,0.025667 0.07333,0.2149999 0.0475,0.1075001 0.01783,0.040043 0.0025,0.00562 0.06458,0.1237501 0.02483,0.043491 0.05509,0.096509 0.06083,0.097083 0.0235,0.034 0.069,0.094833 0.08683,0.1193333 0.02633,0.034166 0.133335,0.1600001 0.04016,0.045333 0.100834,0.1080356 0.08413,0.090139 0.01337,0.014325 0.02217,0.022667 0.04833,0.045167 0.163334,0.1600001 0.114224,0.103616 0.0024,0.00222 0.576,0.036833 1.339665,0.085667 0.708336,0.045107 0.438888,0.027949 0.668053,0.044722 2.989055,0.205863 0.481945,0.033192 3.083889,0.2188335 0.530167,0.037154 2.942057,0.2061794 1.153944,0.080274 1.742618,0.1212258 0.305382,0.021244 0.618611,0.043034 0.405389,0.026091 0.285166,0.018353 0.738834,0.046887 1.024001,0.064984 0.444999,0.02824 0.579001,0.033453 0.122944,0.0071 0.901054,0.049884 0.338278,0.018727 0.393057,0.019445 0.292665,0.014044 1.024001,0.049139 0.083,0.00398 0.495445,0.0195 0.445555,0.01709 0.06139,0.00235 0.517111,0.016611 0.346944,0.0075 0.03944,0.00222 0.05911,0.00144 0.201678,0.00491 0.140544,0.00342 0.667223,0.00944 0.01455,1.731e-4 0.359222,0.00427 0.03618,-7.63e-5 0.227157,-4.792e-4 0.314247,-8.102e-4 0.03064,-7.91e-5 0.05656,-7.615e-4 0.273444,-0.00368 0.104328,-0.00174 0.0255,-4.248e-4 0.110167,-0.00184 0.112889,-0.00356 0.377778,-0.012222 0.01989,-9.489e-4 0.09906,-0.00472 0.1606107,-0.00766 0.081246,-0.00388 0.058198,-0.00278 0.3150006,-0.024445 0.064888,-0.004 0.1235561,-0.00978 0.094198,-0.00989 0.027247,-0.00286 0.047889,-0.00503 0.1066169,-0.013437 0.2989388,-0.037674 0.052444,-0.00667 0.098222,-0.014222 0.098812,-0.019157 0.031855,-0.00618 0.060275,-0.013464 0.2058363,-0.04598 0.02311,-0.00525 0.016001,-0.00364 0.072,-0.02 0.034574,-0.011687 0.028537,-0.00965 0.023967,-0.00989 0.00403,-0.00166 0.1258335,-0.044166 0.056944,-0.028056 0.025778,-0.011556 0.018531,-0.010274 0.021117,-0.011708 0.00524,-0.00291 0.042607,-0.028874 0.024615,-0.016681 0.019111,-0.013333 0.021929,-0.019424 0.00918,-0.00813 0.016789,-0.018222 0.00989,-0.010736 0.018876,-0.020487 0.016889,-0.022223 0.00443,-0.0083 3.133e-4,-5.88e-4 0.013037,-0.024445 0.00778,-0.016917 0.00764,-0.016616 0.00236,-0.00513 0.00556,-0.020555 0.00129,-0.00836 0.00205,-0.01331 0.00311,-0.032889 V 3.881 L -7.5959864,2.0480001 -7.6674781,0 l -0.071492,-2.0480001 -0.071492,-2.0480001 -0.021538,-0.6169996 -0.3600006,0.02635 -0.2536659,0.018567 -0.2434712,0.017832 -0.4790296,0.035085 -0.3504992,0.026834 -0.1537504,0.014166 m -31.060779,7.2658475 -0.0038,-0.00887 -0.0088,-0.020481 -0.0079,-0.01571 -0.0096,-0.018957 -0.117501,-0.2495835 -0.07917,-0.1470756 -0.01167,-0.021674 -0.04483,-0.071667 -0.05676,-0.089667 -0.05553,-0.087726 -0.0027,-0.00427 -0.1,-0.1333334 -0.0054,-0.00651 -10e-4,-0.00126 -0.01825,-0.022066 -0.117916,-0.1287499 -0.0493,-0.050172 -0.01662,-0.016912 -0.08544,-0.074369 -0.0046,-0.00396 -0.0125,-0.011167 -0.02533,-0.018833 -0.08333,-0.060417 -0.06334,-0.04 -0.154999,-0.082917 -0.01267,-0.008 -0.02213,-0.011503 -0.0032,-0.00166 -0.02517,-0.01 -0.05133,-0.01938 -0.09325,-0.035204 -0.04375,-0.014583 -0.06972,-0.018023 -0.01603,-0.00414 -0.08375,-0.020417 -0.165664,-0.026833 -0.08125,-0.012917 -0.166249,-0.014167 -0.02217,-0.002 -0.0023,-8.47e-5 -0.02536,-9.349e-4 -0.0085,-3.137e-4 -0.139164,-0.005 -1.49e-4,2.6e-6 -0.02785,4.973e-4 -0.07883,0.00305 -0.09367,0.00362 -0.05833,0.00642 -0.07667,0.01625 -0.02183,0.00583 -0.04625,0.015833 -0.04317,0.021583 -0.04083,0.02375 -0.02858,0.021583 -0.02417,0.024583 -0.0245,0.026833 -0.037,0.054 -0.01625,0.03625 -0.02683,0.06475 -0.01458,0.063 -0.02167,0.1108333 -0.003,0.032333 -0.0058,0.1991667 0.0012,0.038833 0.0067,0.1216667 0.003,0.0295 0.0028,0.027667 0.0059,0.057414 4.2e-4,0.00409 0.0375,0.26 0.0047,0.0325 0.01216,0.063333 0.05083,0.2566667 0.458001,0.026051 2.048,0.1164877 0.305248,0.017362 0.0018,9.97e-5 -0.0675,-0.1608334 -0.01138,-0.026423 -0.0013,-0.00306 m -0.661057,-2.98718751 0.0036,-0.004327 0.02217,-0.0275 0.03158,-0.0427547 0.02259,-0.0305786 0.05417,-0.0783333 0.0215,-0.0313334 0.0081,-0.0127106 0.04292,-0.0670536 0.0023,-0.003569 0.05167,-0.0875 0.02083,-0.0351667 0.02034,-0.0393333 0.127499,-0.24333334 0.005,-0.0111907 0.0062,-0.01381 0.13583,-0.3039999 -0.141998,0.016971 -2.048,0.2447662 -0.353619,0.042263 -0.25938,0.0310008 -0.02167,0.13166666 -0.005,0.0318469 -0.0014,0.008653 -0.005,0.0455 -0.03403,0.29005348 -9.69e-4,0.00828 -0.0067,0.16166666 -0.0012,0.0259424 -1.52e-4,0.003321 -1.6e-5,4.0332e-4 3.32e-4,0.027 3.4e-4,0.0121059 0.0044,0.15859446 2.36e-4,0.0084663 10e-4,0.01282615 4.51e-4,0.0055072 L -43.682468,0 l 2.17e-4,0.00175 0.02208,0.12291667 0.0033,0.0223333 0.0053,0.0195 0.03417,0.10166666 0.0072,0.0166667 0.04583,0.0858333 0.0088,0.0141667 0.0078,0.008833 0.03125,0.0379167 0.01738,0.0207985 0.008,0.009618 0.01458,0.0125 0.05292,0.0391667 0.0088,0.007167 0.01333,0.0075 0.07917,0.0358334 0.015,0.005 0.075,0.0183333 0.0165,0.002833 0.07667,0.008333 0.01783,6.6668e-4 h 0.100834 l 0.01233,-7.5734e-4 0.0067,-4.0937e-4 0.154167,-0.0175 0.02017,-0.002667 0.04283,-0.0101667 0.145836,-0.0316666 0.02233,-0.007333 0.18,-0.0558333 0.04039,-0.0165319 0.130616,-0.053468 0.007,-0.003367 0.0217,-0.0103826 0.116253,-0.06125 0.03466,-0.018 0.01167,-0.007167 0.0115,-0.007667 0.01431,-0.009145 0.06386,-0.0408363 0.09517,-0.0608517 0.02883,-0.0223333 0.0099,-0.008192 0.06832,-0.05669577 L -41.664791,0 l 0.0056,-0.00466667 0.02111,-0.01974906 0.0074,-0.0069176 0.08458,-0.08666667 0.04869,-0.0540467 0.0096,-0.0107034 0.0935,-0.11275681 m -3.013912,0.67867348 0.05833,-0.0691667 0.03042,-0.0508333 0.03208,-0.0666667 0.0053,-0.0121667 0.025,-0.0766667 0.0042,-0.01333332 0.004,-0.022 L -44.236511,0 l 0.01351,-0.07933334 8.4e-4,-0.01376657 9.91e-4,-0.01623343 0.0013,-0.0307684 0.0028,-0.066315 -0.0058,-0.13124999 -0.0012,-0.024 -6.87e-4,-0.005907 -0.0023,-0.0199264 -5.91e-4,-0.004843 -0.02024,-0.16515728 -0.005,-0.0276667 -0.01917,-0.1008333 -0.054,-0.222 -0.283333,0.0683333 -0.149502,0.0366667 -0.297165,0.0739406 -0.231998,0.057726 -0.24667,0.0654166 -0.436333,0.11491668 -0.03865,0.0110493 L -46.716,-0.278 l 0.04083,0.0566667 0.0185,0.0243333 0.06583,0.0825 0.02066,0.02283333 0.0295,0.03033334 L -46.481018,0 l 0.05835,0.06 0.08083,0.07 0.03933,0.0336667 0.05667,0.0433333 0.09,0.0616667 0.02633,0.0176667 0.0495,0.0297876 0.04467,0.026879 0.01867,0.0105 0.149166,0.0733333 0.01702,0.007755 0.02248,0.0102454 0.155834,0.0625 0.01465,0.00465 0.01923,0.006099 0.0076,0.002418 0.02133,0.004667 0.313332,0.0766666 0.03683,0.0045 0.0925,0.01 0.0205,5.0002e-4 0.09017,0.002497 0.04525,0.001253 0.0084,-2.4128e-4 0.03531,-0.001009 0.06333,-0.005833 0.0385,-0.004333 0.07333,-0.0129167 0.04958,-0.0133333 0.06125,-0.0169167 0.05542,-0.0239167 0.04917,-0.0220833 0.05017,-0.0309167 L -44.5,0.472 l 0.05925,-0.0501957 7.55e-4,-6.3765e-4 0.0125,-0.0106667 0.01934,-0.0273333 M -44.577,1.2658334 -44.661999,1.24 l -0.07058,-0.013417 -0.06375,-0.010833 -0.07525,-0.00583 -0.006,-3.303e-4 -0.05481,-0.003 -0.118752,0.00125 -0.0048,-4.88e-5 -0.01167,-1.179e-4 -0.0225,0.00133 -0.175831,0.021667 -0.02284,0.00317 -0.02817,0.006 -0.149166,0.032917 -0.07758,0.023333 -0.04125,0.012917 -0.0975,0.035833 -0.02745,0.01113 -0.0095,0.00387 -0.158333,0.075 -0.0065,0.00335 -0.01352,0.00698 -0.110832,0.066667 -0.01265,0.00784 -0.0062,0.00383 -0.0525,0.03696 -0.05167,0.036373 -0.01783,0.012833 -0.02433,0.021333 -0.06417,0.054167 -0.01164,0.012294 -0.0032,0.00337 -0.120415,0.1191668 -0.04135,0.051691 -0.04698,0.058726 -0.06042,0.08625 -0.01633,0.0245 -0.0039,0.00683 -0.06528,0.1148334 -0.0047,0.00931 -0.01376,0.027019 -2.48e-4,5.293e-4 -0.04475,0.095304 0.07933,0.015166 0.299167,0.0525 0.212498,0.037646 0.03775,0.00669 0.03043,0.00492 0.326569,0.052827 0.552917,0.084583 0.07633,0.010689 0.151001,0.021144 0.517082,0.07125 0.257916,0.034583 0.0325,-0.1508333 0.011,-0.0605 0.01735,-0.1057716 1.45e-4,-8.952e-4 0.0093,-0.088724 0.0023,-0.022109 1.3e-4,-0.00172 9.5e-4,-0.012713 0.0011,-0.014565 0.0032,-0.1811666 1.26e-4,-0.00717 -6.68e-4,-0.029333 -0.01083,-0.1066666 -0.0022,-0.016 -0.02667,-0.1158333 -0.0055,-0.022167 -0.0125,-0.035833 -0.01333,-0.034167 -0.01017,-0.024167 -0.0225,-0.046667 -0.02375,-0.03875 -0.01889,-0.030308 -0.0062,-0.00994 -0.03916,-0.049167 -0.0055,-0.00717 -0.02317,-0.020833 -0.104164,-0.090833 -0.04417,-0.028333 -0.01567,-0.00917 -0.108334,-0.048333 -0.0163,-0.00661 -0.0014,-5.538e-4 -0.01417,-0.00417 m -2.180999,0.078167 0.0055,-0.017833 0.005,-0.024 0.02583,-0.1525 0.0022,-0.018 4.99e-4,-0.012 0.0043,-0.095667 2.89e-4,-0.00642 -0.01292,-0.15375009 -0.0028,-0.0354032 -6.1e-5,-7.6342e-4 -0.0023,-0.012 -0.0144,-0.0767811 -0.0019,-0.009886 -0.028,-0.0950833 -0.01015,-0.0356861 -0.0028,-0.009731 -0.065,-0.15916669 -0.01083,-0.027 -0.0125,-0.0241666 -0.11414,-0.20200001 -0.0017,-0.003 L -47.004665,0.155 -47.040165,0.10666667 -47.104,0.01429608 -47.111,0.00416667 -47.114227,0 -47.210999,-0.125 -47.345165,-0.08 -47.5825,0 l -0.02225,0.0075 -0.147499,0.0525 -0.135917,0.04958333 -0.158081,0.0606667 -0.08175,0.0319131 -0.07409,0.0289202 -0.267917,0.11791668 -0.056,0.024 -0.03516,0.0168333 -0.0089,0.004531 -0.275238,0.1396361 -0.019,0.01 -0.02833,0.0165 -0.184166,0.11666661 -0.0079,0.005391 -0.01142,0.007776 -0.0165,0.0128334 -0.03933,0.0322674 -0.091,0.0746481 -0.0088,0.007251 -0.0013,0.001173 -0.0057,0.005161 -0.01217,0.0126666 -0.0675,0.075 -0.01833,0.0233334 -0.01083,0.0156667 -0.02625,0.0470833 -0.0086,0.0202527 -0.0027,0.00633 -0.01148,0.027083 -0.0083,0.022917 -0.004,0.02051 -9.6e-5,4.902e-4 -0.0033,0.0225 4.16e-4,0.058333 -3.36e-4,0.009 0.003,0.014833 0.01022,0.040868 0.0031,0.012466 0.0425,0.0775 0.006,0.011833 0.0012,0.00159 0.0076,0.00991 0.07083,0.076667 0.0012,0.00119 0.0097,0.00926 9.23e-4,8.855e-4 0.007,0.00567 0.07459,0.061667 0.04242,0.028999 0.0043,0.00293 0.01047,0.00716 0.137917,0.07875 0.01779,0.010303 0.0012,6.975e-4 0.02817,0.0135 0.148331,0.07009 0.0033,0.00158 0.01866,0.008 0.243332,0.093333 0.0241,0.00907 0.0109,0.0041 0.039,0.013 0.229583,0.075833 0.106919,0.030887 0.07683,0.022196 0.161252,0.044167 0.09377,0.02425 0.0754,0.0195 0.233749,0.055 0.258999,0.0595 0.104432,-0.1339998 0.01957,-0.025109 0.01433,-0.018392 0.02922,-0.038199 0.0028,-0.00363 0.01517,-0.023833 0.08875,-0.1358334 0.05542,-0.099167 0.01283,-0.024 0.03125,-0.065833 0.04375,-0.1050001 0.0088,-0.023293 0.01371,-0.03629 0.03,-0.1054166 M 56.863777,2.6915555 56.70911,2.8093333 56.562691,2.9194217 56.523277,2.9490557 56.346027,3.072 56.327447,3.084889 56.207002,3.170222 56.173792,3.192099 56.040339,3.28 l -0.202778,0.1294443 -0.07067,0.0424 -0.102665,0.0616 -0.152222,0.090556 -0.08389,0.046667 -0.132111,0.072596 -0.159668,0.087738 -0.189998,0.097222 -0.18578,0.092889 -0.202625,0.094889 -0.02515,0.011777 -0.191109,0.087111 -0.233333,0.098889 -0.246666,0.099111 -0.118409,0.045357 -0.101314,0.038809 -0.265278,0.091944 -0.128666,0.045892 -0.07444,0.026552 -0.313335,0.095111 -0.25111,0.075833 -0.132778,0.036111 -0.252335,0.065705 -0.0084,0.00218 -0.169724,0.039166 -0.353886,0.079444 -0.244445,0.046111 -0.225659,0.038889 -0.0219,0.00377 -0.0078,0.00134 -0.136647,0.02355 -0.266144,0.041026 -0.01497,0.00231 -0.127224,0.016111 -0.170002,0.022021 -0.0016,2.007e-4 -0.008,8.312e-4 -0.107967,0.011169 -0.183666,0.019063 -0.09467,0.00983 -0.234222,0.018667 -0.210758,0.016084 -3.51e-4,2.71e-5 -0.0034,-0.060886 -0.0058,-0.1055031 -0.0011,-0.019611 -6.79e-4,-0.012376 -5.91e-4,-0.010776 -3.8e-5,-6.528e-4 -0.0016,-0.026512 -10e-4,-0.020501 -1.45e-4,-0.00287 -7.28e-4,-0.014589 -6.79e-4,-0.01112 -2.1e-4,-0.00339 -3.28e-4,-0.00539 -3.93e-4,-0.00774 -3.13e-4,-0.00613 -0.0014,-0.027816 -0.0012,-0.021698 -0.0012,-0.019896 -1.68e-4,-0.00285 -0.0019,-0.034454 -7.36e-4,-0.014249 -7.6e-5,-0.00147 -0.001,-0.020162 -0.0014,-0.023875 -0.0014,-0.025063 -0.03847,-0.6989417 -2.6e-5,-4.749e-4 -0.324444,0.018889 -0.09356,0.00531 -0.07858,0.00446 -0.05497,0.00312 -0.316112,0.010556 -0.347111,0.011555 -0.05844,7.024e-4 -0.168785,0.00203 -0.0039,4.67e-5 -0.243999,8.888e-4 -0.19051,-0.00464 -0.04683,-0.00114 -0.173194,-0.00194 -0.178334,-0.0025 -0.177913,-0.00667 -0.0093,-4.545e-4 -0.218166,-0.010629 -0.177082,-0.010416 -0.148751,-0.00992 -0.221893,-0.02025 -0.02922,-0.00267 -0.11111,-0.00889 -0.05538,-0.00631 -0.0624,-0.0071 -0.206223,-0.023479 -0.23653,-0.026805 L 45.633557,4.0202 45.420166,3.9886668 45.056,3.9275331 45.017082,3.921 l -0.215,-0.040833 -0.224583,-0.048417 -0.0043,-8.592e-4 -0.02892,-0.00577 -0.02871,-0.00672 -0.02306,-0.0054 -0.340084,-0.088083 -0.120415,-0.030327 -0.04834,-0.012173 -0.184997,-0.054861 -0.135113,-0.041778 -0.06469,-0.022001 -0.154198,-0.052444 -0.215557,-0.077778 -0.114445,-0.043472 -0.106667,-0.045095 -0.08755,-0.037013 -0.02103,-0.00889 -0.157086,-0.067083 -0.303333,-0.1516669 -0.01762,-0.00833 -0.05904,-0.027917 -0.07584,-0.03875 -0.07417,-0.040417 -0.228333,-0.1356437 -0.0073,-0.00436 -0.07291,-0.0425 -0.01556,-0.010062 -0.09708,-0.062763 -0.04611,-0.029813 -0.109512,-0.075426 -0.0063,-0.00435 -0.01839,-0.012666 -0.064,-0.048445 -0.06559,-0.048402 -0.113018,-0.083403 -0.136391,-0.11375 -0.10704,-0.091713 -0.07296,-0.06251 -0.09178,-0.084957 -0.0066,-0.00615 -0.0081,-0.0075 -0.102916,-0.1047221 -0.03658,-0.03638 -0.04564,-0.045398 -0.07867,-0.084889 -0.114029,-0.1306946 -0.110168,-0.1345373 -0.01641,-0.020046 -0.121666,-0.1654166 -0.0095,-0.01279 -0.04998,-0.067126 -0.06611,-0.099167 -0.04266,-0.061778 -0.01978,-0.031889 -0.01344,-0.021667 -0.03276,-0.0528327 -0.01313,-0.0211673 -0.03645,-0.0657778 -0.08916,-0.15638888 -0.01017,-0.0197685 -0.02733,-0.0531481 -0.04434,-0.0875 -0.02226,-0.047435 -0.01274,-0.0271483 -0.06125,-0.13358334 -0.01494,-0.0365084 L 39.708221,0.213 39.666,0.109 39.656429,0.08199278 39.641109,0.03877778 39.62875,0 39.61845,-0.03233333 39.564,-0.19316667 l -0.02292,-0.0791666 -0.06314,-0.25309104 -0.008,-0.032159 -0.03667,-0.16041666 -0.01375,-0.08125 L 39.38486,-1.024 39.38216,-1.041333 39.37133,-1.123 l -0.0075,-0.082083 -0.01458,-0.1464166 -0.0024,-0.039174 -0.0026,-0.043326 -0.0052,-0.098 -0.0075,2.859e-4 -0.01875,7.192e-4 -0.400799,0.015377 -0.772,0.029618 0.772,-0.041852 0.402057,-0.021796 0.01786,-9.683e-4 0.0071,-3.839e-4 -5.57e-4,-0.1866667 -0.0013,-0.074667 0.0022,-0.112 0.0076,-0.112 6.26e-4,-0.011667 0.0076,-0.1412499 5.69e-4,-0.015656 0.0019,-0.052437 6.8e-5,-0.00186 0.01223,-0.070432 0.004,-0.022947 2.13e-4,-0.00173 0.0237,-0.1925218 0.02847,-0.1547222 0.028,-0.1466668 0.01328,-0.055517 0.004,-0.016927 0.03576,-0.1513333 7.66e-4,-0.00325 0.05069,-0.1687501 0.03111,-0.1071112 0.0082,-0.024792 0.02692,-0.08143 0.07944,-0.208889 0.02711,-0.069778 0.02575,-0.058564 0.03425,-0.07788 0.06236,-0.1351387 0.04434,-0.088084 1.71e-4,-3.333e-4 0.02507,-0.048209 0.01251,-0.024054 1.64e-4,-3.204e-4 0.05806,-0.1048613 0.036,-0.065778 0.07867,-0.1288886 0.08361,-0.1309724 0.056,-0.081667 0.07083,-0.1008334 0.07,-0.090972 0.04605,-0.061182 0.04595,-0.06104 0.100887,-0.116889 0.0073,-0.00833 0.144951,-0.166111 0.07942,-0.081363 0.02991,-0.030638 L 40.951,-5.507 l 0.009,-0.00819 0.07944,-0.072258 0.119213,-0.1083179 0.01301,-0.011821 0.163334,-0.1347499 0.06417,-0.053333 0.133335,-0.1008334 0.116387,-0.081944 0.08767,-0.065556 0.01099,-0.00822 0.02755,-0.018605 0.07645,-0.051618 0.132446,-0.081163 0.01333,-0.00817 0.132915,-0.084306 0.07208,-0.043334 0.14875,-0.081666 0.201835,-0.1090831 0.07625,-0.038333 0.212333,-0.1020833 0.155835,-0.070417 0.01066,-0.00462 0.154999,-0.06713 0.07917,-0.032917 0.114331,-0.044917 0.120834,-0.045833 0.236252,-0.084583 0.140144,-0.047 0.06485,-0.02175 0.113418,-0.035476 0.132748,-0.041523 0.204586,-0.057917 0.19212,-0.051641 0.003,-8.035e-4 0.100445,-0.024444 0.224442,-0.056528 0.07109,-0.015393 0.09558,-0.020698 0.0046,-9.928e-4 0.271832,-0.057167 0.129165,-0.024583 0.194302,-0.034668 0.08686,-0.015499 0.144669,-0.022167 0.174167,-0.028333 0.01842,-0.00249 0.137131,-0.018546 0.0632,-0.00855 0.08833,-0.01 0.447998,-0.054833 0.287334,-0.022844 0.182251,-0.01449 0.264999,-0.02375 0.166329,-0.010542 0.01117,-7.081e-4 0.325501,-0.01575 0.07375,-0.00327 0.09454,-0.0042 0.01004,-4.458e-4 0.420586,-0.00817 0.4375,-0.00875 0.06133,-0.00126 0.0195,-4.019e-4 0.0032,-1.48e-5 0.14093,-6.399e-4 0.493954,-0.00524 0.153213,0.00214 0.0038,1.388e-4 0.209355,0.00762 4.46e-4,1.62e-5 0.171112,0.00489 0.05687,0.00341 0.165355,0.00992 0.275555,0.018889 0.03904,0.00364 0.123184,0.011475 0.10622,0.012444 0.08622,0.00899 0.031,0.00323 0.07917,0.00833 0.124226,0.01575 0.01161,0.00147 0.104,0.014223 0.193333,0.029444 0.02071,0.0037 0.282406,0.050518 0.177555,0.032671 0.01342,0.00247 0.241253,0.05375 0.193333,0.045333 0.03526,0.0094 0.200291,0.05338 0.09422,0.024889 0.0066,0.00198 0.176967,0.053133 0.06267,0.018887 0.06775,0.020419 0.261807,0.089028 0.132888,0.045333 0.123913,0.047511 0.04185,0.016044 0.05382,0.020635 0.0592,0.022698 0.164887,0.071111 0.117889,0.049351 0.02975,0.012454 0.160587,0.071541 0.0012,5.421e-4 0.100323,0.048323 0.0015,7.649e-4 0.188774,0.098691 0.347111,0.1786666 0.0612,0.034798 0.05116,0.029091 0.08242,0.050063 0.01841,0.011187 0.145142,0.092084 0.181602,0.1128368 0.03084,0.019163 0.14019,0.1 0.0567,0.040444 0.17736,0.1243057 0.09558,0.072245 0.029,0.021922 0.149166,0.1183605 0.01183,0.00939 0.05479,0.043158 0.06242,0.051842 0.0024,0.00458 0.08458,0.074306 0.05911,0.050222 0.08444,0.076 0.08133,0.077333 0.06716,0.063376 0.06103,0.057596 0.01177,0.012109 0.123261,0.1268077 1.1e-4,1.111e-4 0.150223,0.1582222 0.09639,0.1079164 0.07317,0.086372 0.04641,0.054794 0.07751,0.095918 0.02541,0.031444 0.02038,0.026258 0.04274,0.055075 0.146664,0.2050004 0.05955,0.081778 0.07324,0.1147838 0.004,0.00633 0.0085,0.013256 0.02005,0.031411 0.04389,0.068889 0.09944,0.1733334 0.01473,0.030695 0.01663,0.035086 0.06809,0.1436641 0.09585,0.1841345 0.0055,0.010532 0.036,0.084 0.07556,0.21 0.01424,0.039 0.01643,0.045 0.0032,0.010101 0.01003,0.031769 0.01344,0.042574 0.02134,0.084445 0.0318,0.1177778 0.01056,0.049915 0.0093,0.043974 0.01273,0.065382 0.0037,0.019062 0.01378,0.1137778 0.02307,0.1752355 2.59e-4,0.00199 0.637299,-0.022305 0.0627,-0.00219 0.07278,-0.00258 0.0048,-1.807e-4 0.04182,-0.00159 0.04394,-0.00144 0.02071,-7.317e-4 0.02153,-7.608e-4 0.0199,-7.99e-4 0.01276,-3.004e-4 0.0065,-1.521e-4 0.0372,-0.00135 0.03507,-0.00121 0.01669,-5.663e-4 0.01833,-6.428e-4 L 59.708,-2.313 v 8.06e-5 1.092e-4 4.873e-4 0.058767 l -0.0027,0.1484444 -0.0015,0.057111 -0.0018,0.069 -0.032,0.334 -0.056,0.334 -0.02944,0.1261112 -0.02161,0.088031 -0.0022,0.00888 -0.01265,0.051532 -0.06778,0.22166661 -0.03285,0.10288888 -0.01426,0.0446667 -0.0091,0.0243075 -0.01848,0.0494702 -0.01367,0.0359174 -0.05355,0.14074928 -0.06267,0.14622223 -0.07944,0.175 L 59.147968,0 l -0.02497,0.04933333 -0.09098,0.17258221 -6.87e-4,0.001307 -0.04044,0.072 -0.10278,0.17166665 -0.05867,0.0946458 -0.02977,0.0480208 -0.113887,0.16944444 -0.06327,0.0908758 -0.0079,0.0113272 -0.02662,0.0382414 -0.07842,0.10455557 -0.04658,0.062111 -0.04148,0.052019 -0.0034,0.00422 -0.05015,0.062893 -0.06944,0.087087 -0.102779,0.1255555 -0.09306,0.105 -0.195721,0.2181112 -0.143001,0.148 -0.164482,0.159 -0.07892,0.076291 -0.05331,0.051537 -0.0033,0.00317 -0.119999,0.1062295 -0.04945,0.043771 -0.141335,0.1253333 -0.01907,0.015643 -0.09204,0.075469 -0.06659,0.054555 -0.108505,0.0889 -0.0032,0.00266 M 12.332,-1.17 12.288,-1.2925714 12.262,-1.365 12.174,-1.551 12.068,-1.728 11.945,-1.8940001 11.807,-2.0469999 11.654,-2.1849999 11.488,-2.3080001 11.311,-2.414 11.125,-2.502 10.93,-2.572 10.73,-2.622 10.526,-2.652 10.32,-2.663 10.24,-2.65873 10.114,-2.652 9.9099998,-2.622 9.71,-2.572 l -0.1949997,0.07 -0.1859998,0.088 -0.1770001,0.1059999 -0.1660003,0.1230002 -0.1518917,0.1369998 -0.00111,10e-4 -0.1380005,0.1529998 -0.1230002,0.1660001 -0.1059999,0.177 -0.087999,0.186 -0.070001,0.195 -0.049999,0.19999997 -0.030001,0.20400006 -0.01,0.20599997 0.01,0.206 0.030001,0.20399999 L 8.2954998,0 l 0.0125,0.05 0.070001,0.195 0.087999,0.18599999 0.1059999,0.17699999 0.1230002,0.16600001 0.1380005,0.153 L 8.9860001,1.0650001 9.1520004,1.188 9.3290005,1.294 9.5150003,1.382 9.71,1.452 9.9099998,1.502 10.114,1.532 10.24,1.53873 10.32,1.543 l 0.206,-0.011 0.204,-0.03 0.2,-0.05 0.195,-0.07 0.186,-0.088 0.177,-0.106 0.166,-0.1229999 0.153,-0.13800011 0.138,-0.153 L 12.068,0.60799998 12.174,0.43099999 12.262,0.245 12.288,0.17257144 12.332,0.05 12.3445,0 12.382,-0.15000001 12.412,-0.354 12.423,-0.56 12.412,-0.76599997 12.382,-0.97000003 12.332,-1.17 M 13.53,0.83063912 V 0.65285647 0.47272974 0.30131447 0.13681954 0 h 0.806 v -2.7222552 0.00807 0.019682 L 13.53,-0.565 V -0.35510871 0 h -0.0087 -0.03938 -0.0051 L 13.53,-0.565 13.469,-1.182 13.339241,-2.0480001 13.312,-2.2298043 v -0.6389563 0.6389563 l -0.15174,0.1818042 -0.73726,-0.615 V -0.56 L 13.476791,0 13.098019,1.024 H 13.312 13.3172 Z"
         fill="none"
         stroke="#ff0000"
         stroke-width="0.001mm"
         id="path6" />
      <path
         style="fill:#000000;stroke-width:0.96"
         d="M 197.8,61.067402 C 170.19424,60.168492 134.00506,57.753386 55.8,51.590952 15.177626,48.389974 16.359727,48.498584 10,47.382868 6.81,46.823232 4.1716305,46.337276 4.1369567,46.302964 4.019662,46.186896 6.4303956,43.508826 7.9353554,42.083346 10.125004,40.009336 12.154785,38.72 14.003349,38.228898 15.971815,37.705942 107.38991,26.255384 141.1,22.30943 c 39.06744,-4.573063 64.03786,-6.884944 67.86212,-6.282998 3.13524,0.493491 5.50266,2.76809 7.15406,6.873568 0.85706,2.130714 1.47938,4.446958 2.57924,9.6 1.44272,6.759306 2.27392,8.561652 4.50458,9.767526 0.71208,0.384942 1.10774,0.432264 3.6,0.43057 2.51416,-0.0018 3.06196,-0.06939 5.36624,-0.663034 C 241.09976,39.733544 265.72062,29.56254 268.72918,26.93072 270.7081,25.199598 273.47946,24.2 276.3,24.2 c 2.08266,0 3.64854,0.407246 5.79678,1.5076 1.15874,0.593516 2.26266,0.980254 3.45322,1.209772 l 1.75,0.337366 v 1.232632 c 0,1.81924 -0.21856,1.89352 -1.77362,0.602764 C 284.80404,28.49056 284.1426,28 284.05652,28 c -0.0861,0 -0.1566,1.2825 -0.15668,2.85 l -1.6e-4,2.85 -0.56956,-1.20393 c -0.74248,-1.569452 -2.1989,-3.00692 -3.82954,-3.779708 C 278.30412,28.149346 278.03154,28.1 276.0958,28.1 c -1.96236,0 -2.19172,0.04308 -3.40212,0.63896 -1.65208,0.813318 -3.0414,2.202634 -3.85472,3.854716 C 268.24284,33.804584 268.2,34.032924 268.2,36 c 0,1.967076 0.0428,2.195416 0.63896,3.406324 0.81332,1.652082 2.20264,3.041398 3.85472,3.854716 1.2104,0.595884 1.43976,0.63896 3.40212,0.63896 1.93574,0 2.20832,-0.04935 3.40478,-0.616362 2.38634,-1.13093 4.24354,-3.60835 4.53222,-6.045796 l 0.12034,-1.016108 1.42042,0.71531 c 0.78122,0.39342 1.61938,0.845672 1.86254,1.005004 l 0.44214,0.289694 -0.5709,1.53413 c -0.314,0.84377 -0.63374,1.691628 -0.71052,1.884128 -0.11402,0.28582 -0.0314,0.35 0.45078,0.35 0.9664,0 1.2524,-0.51549 1.2524,-2.257336 v -1.525838 l 1.55,-0.05841 1.55,-0.05841 0.0535,-5.077444 0.0535,-5.077446 1.04652,0.126148 c 5.26134,0.634206 13.57074,0.652328 18.6465,0.04066 10.44758,-1.259002 21.4084,-4.21705 33.82778,-9.129254 l 3.05964,-1.210171 2.7066,1.52776 c 6.86264,3.873687 11.62112,5.487797 14.78124,5.013909 L 366.5,24.17549 V 22.887745 21.6 h 1.27208 c 0.69966,0 1.68966,-0.05723 2.2,-0.127185 L 370.9,21.34563 v 1.300213 c 0,1.000737 0.0929,1.418255 0.40312,1.812707 0.90498,1.150484 2.91444,1.197924 5.8438,0.13796 3.35044,-1.212329 6.53844,-3.63184 8.95526,-6.79651 C 392.48848,9.4375674 403.73276,4.9130317 420.36856,4.0117147 434.7487,3.2326068 447.7622,7.4998114 456.01378,15.7 c 3.93384,3.909333 6.00162,7.809139 6.58648,12.422016 l 0.12958,1.022016 -0.63992,0.127984 C 461.73796,29.342408 460.75146,29.4 459.8977,29.4 h -1.55228 l -0.13612,-0.907638 c -0.45414,-3.02849 -2.48262,-6.630797 -5.50046,-9.768145 C 447.10752,12.901099 439.16144,9.3220672 429.81526,8.4125954 425.15068,7.958688 416.69412,8.2302224 411.3,9.0071078 398.2408,10.887951 389.7053,16.486528 386.76502,25.1 386.17412,26.830974 385.7,29.469238 385.7,31.026198 V 32.2 l -1.15,0.02171 c -0.6325,0.01194 -1.69,0.09597 -2.35,0.186738 -0.8988,0.12361 -0.6194,0.141766 1.1132,0.07234 l 2.31318,-0.09269 0.2461,1.848334 c 1.25028,9.390666 8.43824,16.037836 20.0465,18.538292 3.94598,0.849978 6.7841,1.096578 12.7192,1.105158 6.51478,0.0094 5.85454,-0.266122 5.85908,2.445126 l 0.003,1.625 -0.625,0.125 c -0.943,0.1886 -5.47652,0.148874 -9.075,-0.07952 -13.53328,-0.858958 -23.09128,-4.8334 -28.60514,-11.8947 -1.47044,-1.883106 -2.32562,-2.699314 -4.06792,-3.882486 -2.5965,-1.763252 -5.42124,-2.70155 -7.77698,-2.5833 -1.32412,0.06646 -1.50648,0.129272 -2.1,0.723262 -0.61734,0.617838 -0.64996,0.725518 -0.64996,2.14613 v 1.495656 l -2.15,-2e-5 -2.15,-2e-5 v -1.190938 -1.190936 l -0.7178,-0.134662 c -3.35264,-0.628958 -8.6537,1.749904 -15.75312,7.069232 l -1.5709,1.177026 -4.0291,-1.273902 C 323.0307,41.437208 306.61396,39.924958 290.5,43.414374 c -4.2651,0.923592 -6.57928,1.654036 -7.74718,2.445294 -3.37168,2.28437 -8.17648,2.54144 -11.86364,0.63474 -0.5609,-0.290058 -1.00042,-0.32965 -2.58256,-0.232642 -3.89954,0.239102 -9.23832,1.655204 -22.00662,5.837224 -24.59248,8.054804 -32.373,9.493546 -48.5,8.968412 z m 0,-5.465114 c 6.46288,-0.285652 9.49536,-0.832898 10.49158,-1.893328 l 0.47402,-0.504564 -0.5387,-15.552198 c -0.29628,-8.553708 -0.53604,-15.989065 -0.5328,-16.523014 l 0.006,-0.970816 -1.55,0.126055 c -0.8525,0.06933 -5.015,0.397003 -9.25,0.728159 -27.81662,2.175125 -50.67227,4.516326 -97.7,10.007822 l -12.2,1.424612 -0.8826,0.927492 c -0.485428,0.51012 -1.266194,1.517842 -1.735036,2.239382 -2.74459,4.223888 -2.12871,8.097568 1.958006,12.315194 l 1.38279,1.427084 1.83842,0.127572 c 1.01113,0.07016 5.25842,0.35219 9.43842,0.626724 4.18,0.274534 17.84513,1.21806 30.36695,2.096726 33.90897,2.379418 45.84099,3.098588 56.13305,3.383262 7.78356,0.21529 7.74314,0.215244 12.3,0.01384 z M 82.944658,47.547274 C 81.1772,43.813954 78.769968,42.2 74.969132,42.2 c -1.232962,0 -1.52812,0.06992 -1.996784,0.473054 -0.472612,0.406522 -0.561642,0.656516 -0.63302,1.777496 -0.04568,0.717442 0.02258,1.930742 0.151694,2.696222 l 0.234754,1.391782 5.337112,0.280722 c 2.935412,0.154398 5.36752,0.211998 5.404688,0.127998 0.03717,-0.084 -0.198148,-0.714 -0.522918,-1.4 z M 70.57163,47.65 C 70.801122,46.261586 70.708592,44.910174 70.335202,44.19688 69.301118,42.221452 65.619868,42.055904 62.968618,43.8656 62.04651,44.495012 60.7,46.170152 60.7,46.687894 c 0,0.228184 1.527278,0.519846 7.3,1.394068 2.585692,0.391578 2.431218,0.417524 2.57163,-0.431962 z M 59.544984,45.290756 C 60.362332,44.049628 60.806904,42.34586 60.60469,41.229558 60.445986,40.353438 59.683546,38.691422 59.123152,38 l -0.405246,-0.5 -1.658954,0.568166 c -2.348624,0.804366 -5.563086,2.394214 -6.194688,3.063842 -1.287664,1.365194 -0.651196,2.578174 1.912906,3.645612 1.4923,0.621246 4.893798,1.59569 5.630074,1.612874 0.278114,0.0065 0.638872,-0.342216 1.13774,-1.099738 z m 8.59216,-4.897722 c 0.890384,-0.247298 1.699802,-1.153544 1.877818,-2.102454 0.144358,-0.769486 -0.04889,-3.060066 -0.291248,-3.45221 -0.121324,-0.196306 -0.446132,-0.182326 -1.53875,0.06623 -2.372896,0.539808 -7.375536,1.942374 -7.575792,2.123988 -0.28478,0.25827 1.422318,1.918392 2.590828,2.519534 1.863416,0.958636 3.511924,1.24075 4.937144,0.844908 z m 8.306408,-0.294798 c 1.527482,-0.453614 3.372894,-1.7851 4.409258,-3.181328 0.901892,-1.215064 2.176738,-3.654026 2.001536,-3.829228 -0.09193,-0.09193 -10.589028,1.108686 -10.725732,1.226766 -0.155222,0.134072 -0.273914,3.481378 -0.147366,4.155932 0.07407,0.394816 0.364088,0.990496 0.644488,1.323734 0.458334,0.5447 0.625548,0.605888 1.655742,0.605888 0.630258,0 1.60319,-0.135794 2.162074,-0.301764 z"
         id="path866"
         transform="matrix(0.26458333,0,0,0.26458333,-62.736,-10.085)" />
      <path
         style="fill:#000000;stroke-width:0.96"
         d="m 288.34858,36.85 c 0.0641,-0.762855 0.54033,-2.294602 1.41459,-4.55 l 1.31795,-3.4 0.009,4.55 0.009,4.55 h -1.42404 -1.42404 z"
         id="path905"
         transform="matrix(0.26458333,0,0,0.26458333,-62.736,-10.085)" />
      <path
         style="fill:#000000;stroke-width:0.96"
         d="M 288.29908,35.083333 C 288.29857,34.9825 288.11899,33.685 287.9,32.2 c -0.4656,-3.157318 -0.5169,-4.799382 -0.15,-4.801322 0.62369,-0.0033 3.35,0.484063 3.35,0.598852 0,0.167162 -2.61555,7.07664 -2.72015,7.185803 -0.0439,0.04583 -0.0803,8.4e-4 -0.0808,-0.1 z"
         id="path944"
         transform="matrix(0.26458333,0,0,0.26458333,-62.736,-10.085)" />
      <path
         style="fill:#000000;stroke-width:0.96"
         d="M 285.85379,36.841175 284.10758,35.9 l -0.004,-3.75 c -0.002,-2.0625 0.0515,-3.75 0.11905,-3.75 0.0676,0 0.65017,0.456826 1.29467,1.01517 0.81922,0.709701 1.28307,0.979861 1.54153,0.897829 0.33556,-0.106502 0.40071,0.119362 0.70534,2.445267 0.44279,3.380863 0.43082,5.064927 -0.0358,5.032909 -0.0707,-0.0049 -0.91439,-0.432353 -1.87481,-0.95 z"
         id="path983"
         transform="matrix(0.26458333,0,0,0.26458333,-62.736,-10.085)" />
      <path
         style="fill:#000000;stroke-width:0.96"
         d=""
         id="path1022"
         transform="matrix(0.26458333,0,0,0.26458333,-62.736,-10.085)" />
      <path
         style="fill:#000000;stroke-width:0.96"
         d="m 286.9,41.646745 c 0,-0.08429 0.26474,-0.826789 0.58831,-1.649999 l 0.5883,-1.496746 0.0117,1.319002 c 0.009,1.033909 -0.0674,1.390546 -0.35406,1.65 -0.38152,0.345274 -0.83425,0.441731 -0.83425,0.177743 z"
         id="path1061"
         transform="matrix(0.26458333,0,0,0.26458333,-62.736,-10.085)" />
      <path
         style="fill:#000000;stroke-width:0.96"
         d="M 424.83333,57.866666 C 424.76,57.793334 424.7,56.85481 424.7,55.781058 v -1.952276 l 1.05,-0.108416 c 0.5775,-0.05963 1.68,-0.16209 2.45,-0.227688 2.32864,-0.198386 6.24807,-1.060072 9.0138,-1.981684 C 449.0386,47.570679 458.3,38.543466 458.3,30.95798 V 29.6 l 1.75,-0.0027 c 0.9625,-0.0015 1.96675,-0.06072 2.23166,-0.131605 l 0.48165,-0.128874 -0.1369,1.473085 c -0.49029,5.275305 -2.94177,9.988595 -7.55701,14.529362 -2.30479,2.267601 -3.50405,3.246172 -6.0694,4.952495 -5.53685,3.682798 -13.20398,6.442646 -20.56024,7.400836 -2.58789,0.337084 -3.40404,0.376484 -3.60643,0.174098 z"
         id="path1100"
         transform="matrix(0.26458333,0,0,0.26458333,-62.736,-10.085)" />
    </g>
    <path
       style="fill:#000000;stroke-width:0.254"
       d="m 75.382465,85.580183 c 1.8817,0.2014 3.2856,0.5643 4.68312,1.21054 3.39329,1.56914 6.43895,2.52161 9.07521,2.83809 0.84754,0.10175 2.80797,0.087 3.59124,-0.027 1.26068,-0.1835 2.93704,-0.64073 3.52605,-0.96173 0.99178,-0.5405 1.42248,-0.67487 2.16958,-0.67687 0.60791,-0.002 1.20392,0.14781 1.669595,0.41863 0.7619,0.44308 1.24015,0.57983 2.30903,0.66026 1.14038,0.0858 2.57146,-0.0138 5.7845,-0.40274 0.84402,-0.10216 2.30849,-0.27951 3.25437,-0.3941 5.93083,-0.71851 10.54918,-1.00486 16.1925,-1.00398 8.8691,0.001 18.31069,0.79151 30.68938,2.56824 1.52671,0.21913 2.78178,0.40436 2.78904,0.41162 0.0199,0.0199 -1.20661,0.58003 -2.30841,1.05424 -5.60298,2.41148 -11.77716,3.92569 -18.49647,4.53623 -2.78981,0.2535 -3.73039,0.28862 -7.77875,0.2905 -3.92118,0.002 -4.79892,-0.0243 -8.04333,-0.23911 -2.65381,-0.17573 -5.26291,-0.40733 -8.65187,-0.768 -8.45178,-0.89947 -9.42752,-0.99193 -11.42232,-1.08236 -1.42424,-0.0646 -2.67173,-0.006 -3.28402,0.1551 -0.21077,0.0553 -0.51827,0.18329 -0.68333,0.28434 -0.481785,0.29494 -0.709325,0.39619 -1.149485,0.51148 -0.82367,0.21574 -1.77854,0.10312 -2.50261,-0.29515 -0.65462,-0.36007 -0.83308,-0.43699 -1.62543,-0.70062 -2.86133,-0.95199 -5.5737,-1.1481 -8.2253,-0.59472 -1.86518,0.38926 -3.92531,1.23057 -6.13107,2.50378 -1.85118,1.06854 -3.96607,1.58892 -6.4631,1.59028 -1.90121,10e-4 -3.53533,-0.30331 -5.06615,-0.94355 -2.522984,-1.0552 -3.82521,-2.81806 -3.823448,-5.17588 0.0011,-1.39312 0.393446,-2.37844 1.322515,-3.32077 1.196255,-1.21333 2.983263,-1.98155 5.473623,-2.35307 0.51409,-0.0767 2.67802,-0.14155 3.12534,-0.0937 z m -2.32834,1.18508 c -2.40609,0.26886 -4.60092,1.29773 -5.662394,2.65434 -0.540189,0.69039 -0.788728,1.37085 -0.781859,2.14061 0.008,0.89309 0.360272,1.63743 1.150678,2.43113 0.292094,0.29331 0.697765,0.6421 0.901495,0.77509 2.8389,1.85314 7.2991,2.0939 10.49942,0.56675 0.78733,-0.3757 1.389,-0.7933 1.936,-1.3437 0.76043,-0.76517 1.07832,-1.41735 1.12306,-2.30413 0.0317,-0.62899 -0.0666,-1.07939 -0.35684,-1.63384 -0.85881,-1.64086 -3.08765,-2.88277 -5.84622,-3.25754 -0.63615,-0.0864 -2.30238,-0.10256 -2.96334,-0.0287 z m 51.567285,1.61367 c -2.15362,0.043 -4.97286,0.20663 -7.32896,0.42526 -0.93409,0.0867 -3.30737,0.33864 -3.37926,0.35876 -0.0361,0.0101 0.85196,0.85847 2.36766,2.26195 0.0964,0.0893 0.0694,0.1246 -0.83394,1.08917 -0.76215,0.81384 -0.9165,1.00381 -0.84048,1.03453 0.10872,0.0439 3.44987,0.45586 5.25248,0.64756 4.43166,0.47131 7.50241,0.65922 11.45646,0.70107 5.00022,0.0529 9.07387,-0.20025 13.83771,-0.85996 l 1.34937,-0.18687 1.17754,-1.17483 1.17753,-1.17483 -1.04524,-1.04112 -1.04524,-1.04113 -1.40229,-0.13576 c -5.57228,-0.53946 -10.38427,-0.84198 -14.76375,-0.92816 -1.93215,-0.038 -3.09529,-0.0333 -5.97959,0.0244 z m -26.853345,0.68878 c -1.3017,0.33905 -2.10206,1.66904 -1.80579,3.00072 0.16879,0.75869 0.67325,1.37864 1.40706,1.7292 0.38985,0.18623 0.40859,0.18959 1.05833,0.18959 0.6552,0 0.66539,-0.002 1.07708,-0.19845 0.998045,-0.47654 1.580845,-1.55866 1.417475,-2.63193 -0.22943,-1.50723 -1.685505,-2.47166 -3.154155,-2.08913 z"
       id="path866-8" />
    <path
       style="fill:#000000;stroke-width:0.254"
       d="m 55.672067,106.72825 c 3.117861,0.14202 5.621232,1.04041 7.153312,2.56711 0.864937,0.86191 1.321297,1.73903 1.746007,3.35583 0.10334,0.39338 0.23312,0.80418 0.2884,0.9129 0.2054,0.40391 -0.17957,0.42393 4.91347,-0.25564 l 4.57343,-0.61023 5.32061,0.50637 c 2.92633,0.27851 5.38986,0.5122 5.4745,0.51931 0.13902,0.0117 0.17481,-0.0227 0.37042,-0.35634 0.30336,-0.51739 1.01396,-1.22348 1.53943,-1.52968 0.23284,-0.13567 0.64956,-0.32269 0.92605,-0.41559 0.47783,-0.16056 0.54329,-0.16901 1.32291,-0.17073 0.62596,-0.001 0.90167,0.0205 1.16417,0.0922 0.43188,0.11806 1.01218,0.39038 1.41555,0.6643 0.4051,0.2751 1.04926,0.96595 1.2832,1.3762 0.17276,0.30297 0.19588,0.32299 0.34396,0.29793 0.0873,-0.0148 1.87808,-0.24071 3.97949,-0.50206 l 3.820744,-0.47518 h 32.98273 32.98273 l -2.4341,2.43368 -2.43409,2.43368 -26.96629,3.36069 c -14.83146,1.84838 -27.02347,3.36065 -27.09334,3.36058 -0.0896,-8e-5 -1.13337,-0.82872 -3.54016,-2.81046 -1.87722,-1.54569 -3.43694,-2.81926 -3.46605,-2.83016 -0.0291,-0.0109 -1.779324,-0.23403 -3.889374,-0.49586 -2.11005,-0.26183 -3.89599,-0.48626 -3.96875,-0.49872 -0.11484,-0.0197 -0.15672,0.0198 -0.3175,0.29893 -0.23508,0.40819 -0.88012,1.09746 -1.2832,1.37119 -0.43713,0.29685 -1.0001,0.55304 -1.49493,0.68031 -0.52744,0.13566 -1.41521,0.14849 -1.97504,0.0286 -1.16796,-0.25022 -2.24073,-1.00951 -2.87211,-2.03287 -0.18699,-0.30308 -0.2589,-0.37774 -0.36514,-0.37915 -0.0728,-9.5e-4 -2.54016,0.22784 -5.48312,0.50845 l -5.35082,0.51022 -4.42358,-0.58983 c -2.43297,-0.3244 -4.50671,-0.59295 -4.60833,-0.59676 -0.3375,-0.0127 -0.47567,0.21142 -0.71514,1.15994 -0.41341,1.63753 -0.89002,2.55189 -1.802254,3.45755 -1.223238,1.21443 -3.097742,2.03374 -5.433812,2.37503 -3.706637,0.54152 -7.50734,-0.11745 -9.948074,-1.7248 -0.536458,-0.35328 -1.391718,-1.15726 -1.75733,-1.65197 -0.71047,-0.96132 -1.1508,-2.15311 -1.273556,-3.44698 -0.08341,-0.87912 -0.03403,-3.94591 0.07285,-4.52438 0.170651,-0.92358 0.526235,-1.82187 1.026012,-2.59193 0.354055,-0.54554 1.306931,-1.47512 1.941746,-1.89427 1.633315,-1.07845 3.992504,-1.77463 6.322906,-1.86586 0.392906,-0.0154 0.809625,-0.0347 0.926042,-0.0428 0.116416,-0.008 0.568854,0.001 1.005416,0.0213 z m -2.717747,1.23966 c -3.699674,0.47059 -5.980599,1.94007 -6.90109,4.44602 -0.556365,1.51465 -0.688223,3.45371 -0.355039,5.22103 0.472372,2.5056 1.858344,4.12768 4.308893,5.04292 1.546088,0.57744 3.552815,0.87218 5.479775,0.80484 4.522047,-0.15804 6.882913,-1.91307 7.517067,-5.5881 0.32724,-1.89635 0.19845,-4.17255 -0.325168,-5.74714 -0.856536,-2.57574 -2.88336,-3.92413 -6.398149,-4.25651 -0.696045,-0.0658 -2.539074,-0.0232 -3.326289,0.0769 z m 35.639546,4.87386 c -0.52898,0.13647 -0.99847,0.41537 -1.37993,0.81974 -1.76947,1.87573 -0.46845,4.91721 2.10338,4.91721 0.8106,0 1.47376,-0.27322 2.05315,-0.84589 0.95262,-0.94156 1.13493,-2.40392 0.44542,-3.57265 -0.36456,-0.61794 -1.09229,-1.15748 -1.78885,-1.32626 -0.38998,-0.0945 -1.05048,-0.0909 -1.43317,0.008 z m 65.385884,2.0277 -0.3819,0.21938 -0.5706,-0.28495 -0.5706,-0.28494 -25.53229,1.1618 c -14.04276,0.639 -25.53799,1.16723 -25.54497,1.17385 -0.007,0.007 -0.0272,0.0845 -0.0449,0.1731 -0.0317,0.15863 0.0224,0.20555 3.55809,3.08644 1.97467,1.60895 3.61561,2.94483 3.64654,2.96863 0.0309,0.0238 9.95097,-1.18975 22.04456,-2.69676 l 21.98834,-2.74001 0.55759,-0.35546 0.55758,-0.35545 0.62504,0.21385 c 0.34377,0.11761 0.6413,0.19572 0.66117,0.17358 0.13163,-0.14673 1.00553,-1.5115 0.99223,-1.54955 -0.009,-0.0259 -0.27345,-0.34627 -0.58752,-0.71186 l -0.57104,-0.66472 -0.22271,0.12684 c -0.1225,0.0698 -0.39457,0.22557 -0.60462,0.34623 z"
       id="path866-1" />
  </g>
</svg>
